<?xml version="1.0" encoding="UTF-8" standalone="no"?>
<!DOCTYPE svg PUBLIC "-//W3C//DTD SVG 1.1//EN" "http://www.w3.org/Graphics/SVG/1.1/DTD/svg11.dtd">
<svg width="100%" height="100%" viewBox="0 0 950 704" version="1.1" xmlns="http://www.w3.org/2000/svg" xmlns:xlink="http://www.w3.org/1999/xlink" xml:space="preserve" xmlns:serif="http://www.serif.com/" style="fill-rule:evenodd;clip-rule:evenodd;stroke-miterlimit:10;">
    <g transform="matrix(1,0,0,1,-125.21,-98.18)">
        <path d="M808.53,515.61L816,511C816.71,510.55 817.41,510.07 818.13,509.62C785.242,503.964 760.502,475.954 758.95,442.62C758.401,431.452 760.513,420.312 765.11,410.12C773.771,390.826 790.564,376.338 810.92,370.6L810.55,400L826.7,368C826.766,367.99 826.834,367.99 826.9,368C828.008,367.948 829.118,367.922 830.227,367.922C868.111,367.922 899.726,398.098 901.49,435.94C901.55,437.3 901.49,438.64 901.49,439.94C907.11,433.53 912.21,426.66 915.59,419.13C922.43,403.88 922.59,386.61 922.02,365.62C920.94,324.02 919.15,282.11 916.81,240.32C882.125,236.468 855.112,207.689 853.46,172.83C853.36,170.64 853.39,168.49 853.46,166.35C853.46,165.82 853.46,165.28 853.54,164.75C853.68,162.68 853.87,160.63 854.19,158.61C854.19,158.27 854.31,157.95 854.37,157.61C854.663,155.897 855.013,154.203 855.42,152.53C855.58,151.91 855.73,151.28 855.9,150.66C856.4,148.84 856.9,147.05 857.59,145.28C857.8,144.69 858.05,144.12 858.27,143.54C858.78,142.24 859.33,140.96 859.91,139.69C860.22,139.02 860.52,138.36 860.85,137.69C860.93,137.52 861,137.35 861.09,137.18C876.564,106.616 911.99,91.314 944.85,101L944.37,139.26L960.37,107.66C987.234,123.037 1001.07,154.31 994.37,184.53L994.45,184.53C994.34,185.04 994.18,185.53 994.06,186.03C993.84,186.97 993.6,187.9 993.34,188.83C993,190.02 992.62,191.19 992.23,192.36C991.93,193.23 991.64,194.12 991.31,194.98C990.83,196.24 990.31,197.47 989.73,198.7C989.41,199.42 989.12,200.15 988.73,200.86C987.817,202.7 986.817,204.5 985.73,206.26C985.36,206.87 984.94,207.45 984.55,208.06C983.79,209.24 983.02,210.41 982.19,211.55C981.68,212.25 981.13,212.92 980.59,213.61C979.81,214.61 979.01,215.61 978.18,216.52C977.59,217.19 976.99,217.85 976.37,218.52C975.5,219.44 974.6,220.33 973.67,221.21C973.06,221.8 972.44,222.39 971.8,222.95C970.75,223.88 969.65,224.77 968.54,225.64C967.98,226.08 967.44,226.54 966.86,226.96C965.173,228.213 963.43,229.39 961.63,230.49C961.29,230.69 960.93,230.86 960.63,231.06C959.13,231.95 957.63,232.78 956.02,233.56C955.35,233.89 954.65,234.18 953.96,234.49C952.67,235.07 951.37,235.63 950.04,236.14C949.27,236.43 948.48,236.7 947.69,236.97C946.38,237.42 945.05,237.83 943.69,238.2C942.89,238.42 942.1,238.64 941.29,238.83C939.83,239.18 938.34,239.47 936.84,239.72C936.74,239.72 936.65,239.72 936.55,239.78C937.537,257.407 938.413,275.043 939.18,292.69C951.104,268.211 976.051,252.614 1003.28,252.614C1015.5,252.614 1027.52,255.757 1038.18,261.74L1025.57,296.29L1051.51,271.38C1065.39,284.103 1073.67,301.83 1074.51,320.64C1074.84,327.243 1074.23,333.859 1072.7,340.29C1065.17,372.427 1036.27,395.343 1003.27,395.343C977.836,395.343 954.257,381.738 941.53,359.72C941.53,361.51 941.66,363.31 941.71,365.1C942.18,383.62 942.77,406.66 933.54,427.24C927.29,441.19 917.22,452.52 907.27,462.67C900.8,469.28 894.09,475.67 887.21,481.86C880.446,490.943 871.615,498.286 861.45,503.28C850.15,511.987 838.45,520.14 826.35,527.74L819,532.48C812.21,536.69 805.25,541.01 798.42,545.48C799.62,545.36 800.81,545.23 802.03,545.18C832.968,543.73 861.481,562.578 872.27,591.61L827.69,627.9L876.69,616.53C876.647,655.652 844.443,687.821 805.32,687.821C794.62,687.821 784.055,685.414 774.41,680.78C775.51,682.16 776.62,683.53 777.72,684.9C779.91,687.63 782.09,690.34 784.22,693.03C813.22,729.76 821.3,764.64 806.93,791.23L789.47,781.79C803.47,755.91 782.47,722.79 768.64,705.33C766.55,702.69 764.41,700.03 762.25,697.33C743.72,674.33 722.72,648.21 723.25,616.2C724,568 770.89,538.93 808.53,515.61Z" style="fill:rgb(242,242,242);fill-rule:nonzero;"/>
    </g>
    <ellipse cx="455.5" cy="682.65" rx="455.5" ry="21" style="fill:rgb(63,61,86);"/>
    <g transform="matrix(1,0,0,1,-125.21,-98.18)">
        <path d="M948.7,773C951.7,767.49 948.3,760.74 944.42,755.82C940.54,750.9 935.81,745.82 935.91,739.53C936.05,730.53 945.6,725.22 953.24,720.45C958.898,716.907 964.117,712.708 968.79,707.94C970.751,706.106 972.373,703.939 973.58,701.54C975.15,698.02 975.11,694.02 975.01,690.16C974.677,677.32 974.043,664.493 973.11,651.68" style="fill:none;fill-rule:nonzero;stroke:rgb(63,61,86);stroke-width:4px;"/>
    </g>
    <g transform="matrix(1,0,0,1,-125.21,-98.18)">
        <path d="M987.62,651C987.393,646.231 984.752,641.892 980.62,639.5L977.48,645.72L977.57,638.2C976.266,637.809 974.913,637.611 973.552,637.611C965.872,637.611 959.552,643.931 959.552,651.611C959.552,651.847 959.558,652.084 959.57,652.32C959.92,659.752 966.13,665.676 973.57,665.676C981.259,665.676 987.586,659.349 987.586,651.66C987.586,651.44 987.58,651.22 987.57,651L987.62,651Z" style="fill:rgb(87,183,147);fill-rule:nonzero;"/>
    </g>
    <g transform="matrix(1,0,0,1,-125.21,-98.18)">
        <path d="M962.59,746C960.194,750.655 955.378,753.592 950.143,753.592C942.462,753.592 936.143,747.272 936.143,739.592C936.143,731.912 942.462,725.592 950.143,725.592C955.974,725.592 961.222,729.236 963.26,734.7L954.5,741.83L964.14,739.59C964.141,741.819 963.61,744.017 962.59,746Z" style="fill:rgb(87,183,147);fill-rule:nonzero;"/>
    </g>
    <g transform="matrix(1,0,0,1,-125.21,-98.18)">
        <path d="M955.66,718.71C955.436,718.721 955.211,718.726 954.987,718.726C947.538,718.726 941.327,712.782 941,705.34C940.889,703.144 941.303,700.953 942.21,698.95C943.91,695.155 947.209,692.303 951.21,691.17L951.14,696.96L954.32,690.66C954.538,690.65 954.757,690.645 954.975,690.645C962.677,690.645 969.015,696.983 969.015,704.685C969.015,712.14 963.077,718.362 955.63,718.71L955.66,718.71Z" style="fill:rgb(87,183,147);fill-rule:nonzero;"/>
    </g>
    <g transform="matrix(1,0,0,1,-125.21,-98.18)">
        <path d="M989.73,696C989.51,696.01 989.29,696.016 989.07,696.016C981.381,696.016 975.054,689.689 975.054,682C975.054,674.56 980.978,668.35 988.41,668C991.034,667.871 993.642,668.488 995.93,669.78L993.45,676.58L998.55,671.68C1001.29,674.18 1002.92,677.668 1003.09,681.37C1003.15,682.667 1003.03,683.967 1002.73,685.23C1001.3,691.305 995.965,695.721 989.73,696Z" style="fill:rgb(87,183,147);fill-rule:nonzero;"/>
    </g>
    <g transform="matrix(1,0,0,1,-125.21,-98.18)">
        <path d="M985.73,654.7C982.49,655.06 979.34,656.07 976.09,656.27C972.84,656.47 969.27,655.69 967.21,653.16C966.1,651.8 965.55,650.08 964.61,648.6C963.725,647.217 962.512,646.073 961.08,645.27C960.178,647.156 959.709,649.221 959.709,651.312C959.709,658.992 966.029,665.312 973.709,665.312C980.157,665.312 985.81,660.858 987.32,654.59C986.78,654.61 986.25,654.65 985.73,654.7Z" style="fill-opacity:0.1;fill-rule:nonzero;"/>
    </g>
    <g transform="matrix(1,0,0,1,-125.21,-98.18)">
        <path d="M989.73,696C989.494,696.012 989.257,696.018 989.021,696.018C981.34,696.018 975.021,689.698 975.021,682.018C975.021,679.936 975.485,677.88 976.38,676C977.494,676.752 978.452,677.713 979.2,678.83C980.2,680.34 980.8,682.08 981.98,683.47C984.16,686.04 987.9,686.88 991.29,686.72C994.68,686.56 997.94,685.61 1001.29,685.3C1001.75,685.3 1002.23,685.22 1002.7,685.21C1001.28,691.282 995.96,695.706 989.73,696Z" style="fill-opacity:0.1;fill-rule:nonzero;"/>
    </g>
    <g transform="matrix(1,0,0,1,-125.21,-98.18)">
        <path d="M955.66,718.71C955.436,718.721 955.211,718.726 954.987,718.726C947.538,718.726 941.327,712.782 941,705.34C940.889,703.144 941.303,700.953 942.21,698.95C943.374,699.711 944.39,700.677 945.21,701.8C946.3,703.34 946.98,705.11 948.21,706.53C950.58,709.17 954.56,710.1 958.15,710.01C961.74,709.92 964.97,709.08 968.43,708.82C966.685,714.463 961.561,718.432 955.66,718.71Z" style="fill-opacity:0.1;fill-rule:nonzero;"/>
    </g>
    <g transform="matrix(1,0,0,1,-125.21,-98.18)">
        <path d="M962.59,746C960.33,751.028 955.308,754.278 949.795,754.278C942.1,754.278 935.767,747.945 935.767,740.25C935.767,738.268 936.187,736.308 937,734.5C938.152,735.266 939.189,736.192 940.08,737.25C941.41,738.88 942.29,740.72 943.84,742.25C946.71,745.06 951.34,746.25 955.46,746.33C957.841,746.361 960.222,746.251 962.59,746Z" style="fill-opacity:0.1;fill-rule:nonzero;"/>
    </g>
    <g transform="matrix(1,0,0,1,-125.21,-98.18)">
        <path d="M927.54,766.65C927.54,766.65 938.61,766.31 941.95,763.93C945.29,761.55 958.95,758.71 959.82,762.53C960.69,766.35 976.47,781.53 963.96,781.59C951.45,781.65 934.9,779.59 931.57,777.59C928.24,775.59 927.54,766.65 927.54,766.65Z" style="fill:rgb(101,99,128);fill-rule:nonzero;"/>
    </g>
    <g transform="matrix(1,0,0,1,-125.21,-98.18)">
        <path d="M964.18,780.26C951.68,780.36 935.12,778.26 931.79,776.26C929.26,774.72 928.24,769.17 927.91,766.61L927.54,766.61C927.54,766.61 928.24,775.54 931.54,777.61C934.84,779.68 951.42,781.69 963.93,781.61C967.54,781.61 968.79,780.29 968.72,778.39C968.25,779.52 966.87,780.24 964.18,780.26Z" style="fill-opacity:0.2;fill-rule:nonzero;"/>
    </g>
    <g transform="matrix(1,0,0,1,-125.21,-98.18)">
        <path d="M319.62,742.15C312.36,728.71 320.62,712.25 330.06,700.27C339.5,688.29 351.06,675.83 350.81,660.56C350.45,638.62 327.17,625.67 308.57,614.04C294.768,605.409 282.036,595.174 270.64,583.55C266.07,578.88 261.64,573.9 258.98,567.94C255.14,559.36 255.24,549.61 255.49,540.21C256.29,508.877 257.837,477.603 260.13,446.39" style="fill:none;fill-rule:nonzero;stroke:rgb(63,61,86);stroke-width:4px;"/>
    </g>
    <g transform="matrix(1,0,0,1,-125.21,-98.18)">
        <path d="M224.76,444.68C225.316,433.06 231.762,422.492 241.84,416.68L249.5,431.83L249.27,413.49C252.411,412.565 255.668,412.095 258.942,412.095C277.715,412.095 293.162,427.542 293.162,446.315C293.162,465.087 277.715,480.535 258.942,480.535C240.17,480.535 224.722,465.087 224.722,446.315C224.722,445.78 224.735,445.244 224.76,444.71L224.76,444.68Z" style="fill:rgb(87,183,147);fill-rule:nonzero;"/>
    </g>
    <g transform="matrix(1,0,0,1,-125.21,-98.18)">
        <path d="M285.78,676.24C291.626,687.634 303.402,694.827 316.208,694.827C334.361,694.827 349.514,680.373 350.37,662.24C350.609,657.508 349.849,652.779 348.14,648.36C343.062,635.186 330.329,626.448 316.21,626.448C301.948,626.448 289.115,635.364 284.14,648.73L305.51,666.11L282,660.64C281.99,666.068 283.287,671.419 285.78,676.24Z" style="fill:rgb(87,183,147);fill-rule:nonzero;"/>
    </g>
    <g transform="matrix(1,0,0,1,-125.21,-98.18)">
        <path d="M302.67,609.82C303.191,609.844 303.712,609.856 304.233,609.856C323.006,609.856 338.453,594.408 338.453,575.636C338.453,560.359 328.223,546.846 313.52,542.7L313.7,556.79L306,541.46L305.91,541.46C305.379,541.435 304.847,541.423 304.315,541.423C285.541,541.423 270.093,556.871 270.093,575.645C270.093,593.817 284.567,608.983 302.72,609.83L302.67,609.82Z" style="fill:rgb(87,183,147);fill-rule:nonzero;"/>
    </g>
    <g transform="matrix(1,0,0,1,-125.21,-98.18)">
        <path d="M219.61,554.55C220.165,554.577 220.72,554.591 221.275,554.591C240.048,554.591 255.495,539.143 255.495,520.371C255.495,501.598 240.048,486.151 221.275,486.151C215.395,486.151 209.614,487.666 204.49,490.55L210.49,507.12L198.1,495.15C191.413,501.235 187.417,509.739 187,518.77C186.841,521.935 187.134,525.107 187.87,528.19C191.354,543.041 204.371,553.852 219.61,554.55Z" style="fill:rgb(87,183,147);fill-rule:nonzero;"/>
    </g>
    <g transform="matrix(1,0,0,1,-125.21,-98.18)">
        <path d="M229.36,453.8C237.26,454.67 244.94,457.12 252.86,457.61C260.78,458.1 269.49,456.21 274.5,450.05C277.2,446.73 278.55,442.53 280.83,438.91C282.99,435.537 285.952,432.751 289.45,430.8C291.844,435.566 293.092,440.827 293.092,446.161C293.092,464.934 277.644,480.381 258.872,480.381C242.862,480.381 228.888,469.146 225.45,453.51C226.78,453.57 228.08,453.66 229.36,453.8Z" style="fill-opacity:0.1;fill-rule:nonzero;"/>
    </g>
    <g transform="matrix(1,0,0,1,-125.21,-98.18)">
        <path d="M219.61,554.55C220.135,554.574 220.661,554.586 221.187,554.586C239.971,554.586 255.427,539.13 255.427,520.346C255.427,515.3 254.311,510.315 252.16,505.75C249.443,507.577 247.107,509.913 245.28,512.63C242.84,516.31 241.37,520.56 238.5,523.94C233.17,530.2 224.07,532.25 215.81,531.88C207.55,531.51 199.58,529.15 191.36,528.4C190.22,528.3 189.06,528.22 187.91,528.19C191.39,543.028 204.386,553.835 219.61,554.55Z" style="fill-opacity:0.1;fill-rule:nonzero;"/>
    </g>
    <g transform="matrix(1,0,0,1,-125.21,-98.18)">
        <path d="M302.67,609.82C303.205,609.845 303.74,609.858 304.275,609.858C323.042,609.858 338.485,594.415 338.485,575.648C338.485,570.823 337.464,566.052 335.49,561.65C332.672,563.522 330.222,565.894 328.26,568.65C325.6,572.4 323.94,576.72 320.83,580.18C315.06,586.61 305.36,588.88 296.61,588.67C288.14,588.49 279.98,586.41 271.56,585.76C275.821,599.497 288.303,609.151 302.67,609.82Z" style="fill-opacity:0.1;fill-rule:nonzero;"/>
    </g>
    <g transform="matrix(1,0,0,1,-125.21,-98.18)">
        <path d="M285.78,676.24C291.626,687.634 303.402,694.827 316.208,694.827C334.361,694.827 349.514,680.373 350.37,662.24C350.609,657.508 349.849,652.779 348.14,648.36C345.325,650.209 342.798,652.463 340.64,655.05C337.39,659.05 335.24,663.51 331.48,667.21C324.48,674.07 313.19,676.91 303.14,677.21C297.339,677.23 291.542,676.906 285.78,676.24Z" style="fill-opacity:0.1;fill-rule:nonzero;"/>
    </g>
    <path d="M431.22,663.95L299.22,690.95L296.22,690.65L180.22,678.95L180.22,531.95L322.22,507.95L425.22,519.95L425.25,520.6L425.26,520.92L431.22,663.95Z" style="fill:rgb(161,118,51);fill-rule:nonzero;"/>
    <path d="M431.22,663.95L299.22,690.95L296.22,690.65L296.22,539.95L425.25,520.6L431.22,663.95Z" style="fill-opacity:0.1;fill-rule:nonzero;"/>
    <path d="M425.26,520.92L425.22,520.95L296.22,539.95L180.22,531.95L322.22,507.95L425.22,519.95L425.25,520.6L425.26,520.92Z" style="fill-opacity:0.05;fill-rule:nonzero;"/>
    <path d="M576.22,669.95L444.22,696.95L441.22,696.65L325.22,684.95L325.22,537.95L467.22,513.95L570.22,525.95L570.25,526.6L570.26,526.92L576.22,669.95Z" style="fill:rgb(63,61,86);fill-rule:nonzero;"/>
    <path d="M576.22,669.95L444.22,696.95L441.22,696.65L441.22,545.95L570.25,526.6L576.22,669.95Z" style="fill-opacity:0.1;fill-rule:nonzero;"/>
    <path d="M570.26,526.92L570.22,526.95L441.22,545.95L325.22,537.95L467.22,513.95L570.22,525.95L570.25,526.6L570.26,526.92Z" style="fill-opacity:0.05;fill-rule:nonzero;"/>
    <path d="M485.22,525.95L353.22,552.95L350.22,552.65L234.22,540.95L234.22,393.95L376.22,369.95L479.22,381.95L479.25,382.6L479.26,382.92L485.22,525.95Z" style="fill:rgb(63,61,86);fill-rule:nonzero;"/>
    <path d="M485.22,525.95L353.22,552.95L350.22,552.65L350.22,401.95L479.25,382.6L485.22,525.95Z" style="fill-opacity:0.1;fill-rule:nonzero;"/>
    <path d="M479.26,382.92L479.22,382.95L350.22,401.95L234.22,393.95L376.22,369.95L479.22,381.95L479.25,382.6L479.26,382.92Z" style="fill-opacity:0.05;fill-rule:nonzero;"/>
    <path d="M560.22,532.11L491.33,546.21L489.76,546.05L429.22,539.94L429.22,463.22L503.33,450.69L557.09,456.96L557.11,457.3L557.11,457.46L560.22,532.11Z" style="fill:rgb(63,61,86);fill-rule:nonzero;"/>
    <path d="M560.22,532.11L491.33,546.21L489.76,546.05L489.76,467.4L557.11,457.3L560.22,532.11Z" style="fill-opacity:0.1;fill-rule:nonzero;"/>
    <path d="M557.11,457.46L557.09,457.48L489.76,467.4L429.22,463.22L503.33,450.69L557.09,456.96L557.11,457.3L557.11,457.46Z" style="fill-opacity:0.05;fill-rule:nonzero;"/>
    <path d="M375.22,383.11L306.33,397.2L304.76,397.05L244.22,390.94L244.22,314.22L318.33,301.69L372.09,307.96L372.11,308.3L372.11,308.46L375.22,383.11Z" style="fill:rgb(63,61,86);fill-rule:nonzero;"/>
    <path d="M375.22,383.11L306.33,397.2L304.76,397.05L304.76,318.4L372.11,308.3L375.22,383.11Z" style="fill-opacity:0.1;fill-rule:nonzero;"/>
    <path d="M372.11,308.46L372.09,308.48L304.76,318.4L244.22,314.22L318.33,301.69L372.09,307.96L372.11,308.3L372.11,308.46Z" style="fill-opacity:0.05;fill-rule:nonzero;"/>
    <path d="M496.22,380.11L427.33,394.2L425.76,394.05L365.22,387.94L365.22,311.22L439.33,298.69L493.09,304.96L493.11,305.3L493.11,305.46L496.22,380.11Z" style="fill:rgb(161,118,51);fill-rule:nonzero;"/>
    <path d="M496.22,380.11L427.33,394.2L425.76,394.05L425.76,315.4L493.11,305.3L496.22,380.11Z" style="fill-opacity:0.1;fill-rule:nonzero;"/>
    <path d="M493.11,305.46L493.09,305.48L425.76,315.4L365.22,311.22L439.33,298.69L493.09,304.96L493.11,305.3L493.11,305.46Z" style="fill-opacity:0.05;fill-rule:nonzero;"/>
    <path d="M532.22,303.11L463.33,317.2L461.76,317.05L401.22,310.94L401.22,234.22L475.33,221.69L529.09,227.96L529.11,228.3L529.11,228.46L532.22,303.11Z" style="fill:rgb(63,61,86);fill-rule:nonzero;"/>
    <path d="M532.22,303.11L463.33,317.2L461.76,317.05L461.76,238.4L529.11,228.3L532.22,303.11Z" style="fill-opacity:0.1;fill-rule:nonzero;"/>
    <path d="M529.11,228.46L529.09,228.48L461.76,238.4L401.22,234.22L475.33,221.69L529.09,227.96L529.11,228.3L529.11,228.46Z" style="fill-opacity:0.05;fill-rule:nonzero;"/>
    <g transform="matrix(1,0,0,1,-125.21,-98.18)">
        <path d="M704.35,244.45C703.62,250.95 698.66,256.19 696.82,262.45C694.06,271.9 698.82,282.05 705.38,289.45C716.054,301.322 731.053,308.435 747,309.19C749.32,309.39 751.657,309.135 753.88,308.44C755.859,307.634 757.643,306.414 759.11,304.86C764.03,299.91 766.68,293.06 767.73,286.15C768.78,279.24 768.38,272.21 767.97,265.24C767.969,263.798 767.705,262.367 767.19,261.02C766.52,259.739 765.599,258.606 764.48,257.69C760.933,254.431 757.024,251.589 752.83,249.22C751.03,248.22 749.1,247.22 747.95,245.49C747.161,244.112 746.648,242.594 746.44,241.02L745.15,234.46C744.922,232.569 744.276,230.751 743.26,229.14C740.99,226.08 736.64,225.66 732.83,225.51L718.83,224.96C714.48,224.79 708.76,223.54 704.51,224.4C700.51,225.19 701.86,228.85 702.58,232.17C703.622,236.185 704.215,240.304 704.35,244.45Z" style="fill:rgb(255,192,198);fill-rule:nonzero;"/>
    </g>
    <g transform="matrix(1,0,0,1,-125.21,-98.18)">
        <path d="M704.35,244.45C703.62,250.95 698.66,256.19 696.82,262.45C694.06,271.9 698.82,282.05 705.38,289.45C716.054,301.322 731.053,308.435 747,309.19C749.32,309.39 751.657,309.135 753.88,308.44C755.859,307.634 757.643,306.414 759.11,304.86C764.03,299.91 766.68,293.06 767.73,286.15C768.78,279.24 768.38,272.21 767.97,265.24C767.969,263.798 767.705,262.367 767.19,261.02C766.52,259.739 765.599,258.606 764.48,257.69C760.933,254.431 757.024,251.589 752.83,249.22C751.03,248.22 749.1,247.22 747.95,245.49C747.161,244.112 746.648,242.594 746.44,241.02L745.15,234.46C744.922,232.569 744.276,230.751 743.26,229.14C740.99,226.08 736.64,225.66 732.83,225.51L718.83,224.96C714.48,224.79 708.76,223.54 704.51,224.4C700.51,225.19 701.86,228.85 702.58,232.17C703.622,236.185 704.215,240.304 704.35,244.45Z" style="fill-opacity:0.1;fill-rule:nonzero;"/>
    </g>
    <g transform="matrix(1,0,0,1,-125.21,-98.18)">
        <path d="M793.26,537.21L787.32,602.33C785.77,619.41 784.19,636.56 781.15,653.42C780.15,659.23 778.87,665.01 777.41,670.74C773.35,686.65 767.46,702.2 765.56,718.51C765.5,718.98 765.45,719.51 765.4,719.94C765.01,723.54 764.67,727.18 763.4,730.54C762.4,733.03 760.99,735.3 759.96,737.76C757.96,742.68 757.64,748.12 757.39,753.45C750.182,749.381 742.287,746.669 734.1,745.45C730.1,744.86 725.75,744.45 723.1,741.45C720.1,738.19 720.45,733.2 720.95,728.82C722.523,715.22 724.09,701.627 725.65,688.04C726.17,682.194 727.173,676.401 728.65,670.72C729.19,668.83 729.84,666.97 730.5,665.11C731.41,662.55 732.33,659.99 733.02,657.36C733.977,653.134 734.639,648.847 735,644.53C736.61,630.85 738.55,617.2 740.25,603.53L740.34,602.81C742.89,582.09 744.83,561.27 744.27,540.4C744.19,537.31 744.06,534.22 743.86,531.12C743.58,526.63 743.17,524.25 746.86,521.44C750.97,518.34 756.38,516.17 761.08,514.14C763.61,513.04 791.47,503.14 792.08,505.32C793.373,509.951 794.046,514.732 794.08,519.54C794.136,525.441 793.863,531.34 793.26,537.21Z" style="fill:rgb(96,93,130);fill-rule:nonzero;"/>
    </g>
    <g transform="matrix(1,0,0,1,-125.21,-98.18)">
        <path d="M781.15,653.42C780.15,659.23 778.87,665.01 777.41,670.74C773.35,686.65 767.46,702.2 765.56,718.51C765.5,718.98 765.45,719.51 765.4,719.94C752.98,702.2 742.52,683.12 730.4,665.19C731.31,662.63 732.23,660.07 732.92,657.44C733.914,653.191 734.609,648.877 735,644.53C736.61,630.85 738.55,617.2 740.25,603.53L740.34,602.81C741.042,605.711 742.047,608.53 743.34,611.22C751.48,627.76 770.82,636.12 780.28,651.95C780.593,652.443 780.883,652.933 781.15,653.42Z" style="fill-opacity:0.1;fill-rule:nonzero;"/>
    </g>
    <g transform="matrix(1,0,0,1,-125.21,-98.18)">
        <path d="M680.37,508C680.78,521.26 682.9,534.41 685.02,547.51L689.39,574.51C691.78,589.31 694.28,604.4 701.28,617.65C706.52,627.57 714.06,636.03 720.89,644.92C737.67,666.78 750.28,691.55 766.19,714.05C770.82,720.59 777.43,727.67 785.32,726.3C790.5,725.41 794.26,721.09 798.32,717.77C803.12,713.85 808.9,710.98 812.68,706.06C816.46,701.14 817.2,692.98 812.08,689.48C810.33,688.29 808.2,687.84 806.22,687.08C798.29,684.08 793.15,676.32 789.89,668.48C786.63,660.64 784.64,652.23 780.29,644.94C770.83,629.11 751.48,620.75 743.34,604.2C738.78,594.94 738.34,584.2 738,573.93L737.11,547.62C737.01,544.74 736.94,541.75 738.11,539.12C741.22,532.12 750.62,531.46 758.24,530.57C766.881,529.561 775.253,526.921 782.91,522.79C787.3,520.42 791.58,517.4 793.91,513C796.05,509 796.34,504.29 796.59,499.75L799.23,452.06C799.46,447.96 799.66,443.71 798.23,439.87C794.6,430.21 782.4,427.05 772.09,427.51C752.91,428.37 735.21,436.62 717.09,442.2C712.6,443.58 708.09,444.82 703.46,445.75C699.46,446.56 694.46,446.23 690.62,447.53C683.74,449.85 683.91,464.91 682.94,471.15C680.939,483.327 680.078,495.663 680.37,508Z" style="fill:rgb(96,93,130);fill-rule:nonzero;"/>
    </g>
    <g transform="matrix(1,0,0,1,-125.21,-98.18)">
        <path d="M782.72,728.32C784.41,730.03 784.96,732.53 785.4,734.89C787.844,747.987 789.116,761.277 789.2,774.6C789.091,775.843 789.337,777.092 789.91,778.2C790.389,778.857 791.035,779.375 791.78,779.7C796.67,782.03 802.34,778.78 806.42,775.21C813.97,768.6 820.36,759.72 820.79,749.69C820.9,747.11 820.61,744.5 821.06,741.95C821.72,738.17 823.93,734.88 825.87,731.58C829.189,725.955 831.873,719.978 833.87,713.76C834.61,711.42 835.11,708.48 833.27,706.85C832.626,706.338 831.889,705.954 831.1,705.72L809,697.52C807.08,696.81 802.32,709.04 801.57,710.38C799.72,713.65 797.88,715.5 794.17,716.26C790.46,717.02 785.88,715.92 782.34,717.81C776.34,721 779.33,724.91 782.72,728.32Z" style="fill:rgb(83,80,112);fill-rule:nonzero;"/>
    </g>
    <g transform="matrix(1,0,0,1,-125.21,-98.18)">
        <path d="M748.64,735.87C748.23,735.053 747.659,734.329 746.96,733.74C745.939,733.09 744.776,732.695 743.57,732.59C739.37,731.87 734.39,731.4 731.48,734.53C728.76,737.46 729.23,742.23 726.96,745.53C726.24,746.53 725.26,747.43 724.64,748.53C723.869,750.214 723.526,752.062 723.64,753.91C723.52,759 723.4,764.11 723.76,769.19C724.05,773.45 724.76,777.92 727.43,781.26C731.71,786.62 739.43,787.39 746.27,787.73L751.82,788.02C753.346,788.199 754.893,788.056 756.36,787.6C758.197,786.755 759.613,785.198 760.28,783.29C763.17,776.11 758.6,768.38 755.78,761.18C752.53,752.89 753.11,743.7 748.64,735.87Z" style="fill:rgb(83,80,112);fill-rule:nonzero;"/>
    </g>
    <g transform="matrix(1,0,0,1,-125.21,-98.18)">
        <path d="M702.75,207.8C702.679,207.072 702.785,206.338 703.06,205.66C703.87,204.23 705.99,204.66 707.59,205.02C714.02,206.64 720.8,205.17 727.43,205.55C734.06,205.93 741.52,209.24 742.85,215.74C747.66,212.336 751.805,208.079 755.08,203.18C756.92,200.43 758.52,197.28 758.27,193.98C757.91,189.22 753.92,185.66 750.27,182.64L739.27,173.64C737.821,172.311 736.149,171.248 734.33,170.5C731.79,169.63 729.01,170.05 726.33,170.05C718.33,170.05 709.75,166.4 702.62,170.05C699.62,171.58 697.39,174.21 695.23,176.77L685.4,188.41C684.656,189.152 684.112,190.071 683.82,191.08C683.54,192.5 684.27,193.9 684.53,195.33C684.99,197.93 683.87,200.71 684.73,203.21C686.16,207.35 691.2,207.94 694.28,210.32C695.42,211.2 697.22,214.21 698.59,214.17C701,214.12 702.68,209.72 702.75,207.8Z" style="fill:rgb(63,61,86);fill-rule:nonzero;"/>
    </g>
    <circle cx="594.22" cy="112.45" r="31.5" style="fill:rgb(255,192,198);"/>
    <g transform="matrix(1,0,0,1,-125.21,-98.18)">
        <path d="M726.81,279.56C724.626,273.312 718.616,269.165 712,269.34C711.073,269.517 710.113,269.394 709.26,268.99C708.776,268.621 708.389,268.141 708.13,267.59C706.22,264.142 704.682,260.502 703.54,256.73C703.04,255.06 702.35,253.09 700.66,252.66C699.3,252.31 697.91,253.19 697,254.26C696.193,255.408 695.318,256.507 694.38,257.55C690.38,261.09 683.38,257.86 679.19,261.11C678.5,261.64 677.93,262.32 677.19,262.81C676.47,263.249 675.693,263.585 674.88,263.81C666.746,266.456 658.773,269.571 651,273.14C653.8,289.98 656.66,307.14 663.22,322.89C666.34,330.39 669.87,337.74 672.37,345.47C677.91,362.6 678.15,380.93 678.22,398.94C678.22,411.26 678.22,423.84 674.22,435.5C673.32,438.14 672.22,440.76 671.97,443.5C671.72,446.24 672.54,449.34 674.79,450.98C676.092,451.839 677.587,452.365 679.14,452.51C686.05,453.51 693.01,451.69 699.81,450.11C718.04,445.89 736.64,443.47 755.19,441.11L786.29,437.11C788.521,436.954 790.704,436.388 792.73,435.44C798.42,432.33 798.96,423.77 795.42,418.33C793.73,415.72 791.34,413.58 789.91,410.82C788.48,408.06 788.37,404.18 790.82,402.27C795.82,398.37 794.32,391.14 794.56,384.82C795.227,367.14 795.137,349.473 794.29,331.82C794.035,328.159 793.975,324.487 794.11,320.82C794.46,314.6 796,308.51 797.54,302.46L806.99,265.26C804.52,261.36 799.79,258.88 795.32,257.76C790.85,256.64 786.18,256.31 781.77,254.94C772.77,252.14 764.69,245.04 755.26,245.7C754.545,245.713 753.841,245.883 753.2,246.2C751.08,247.41 751.41,250.47 751.28,252.91C750.98,258.32 747,262.83 742.62,266C738.24,269.17 733.22,271.47 729.19,275.08C727.774,276.147 726.902,277.789 726.81,279.56Z" style="fill:rgb(63,61,86);fill-rule:nonzero;"/>
    </g>
    <g transform="matrix(1,0,0,1,-125.21,-98.18)">
        <path d="M602,314.85C599.914,316.206 597.696,317.349 595.38,318.26C593.18,319.13 590.83,319.82 589.03,321.34C588.139,322.113 587.391,323.037 586.82,324.07C585.796,325.888 585.257,327.939 585.257,330.025C585.257,336.68 590.733,342.155 597.387,342.155C597.592,342.155 597.796,342.15 598,342.14C600.89,341.99 603.62,340.82 606.27,339.67L628.49,330C632.25,328.37 636.31,326.47 638.09,322.77C638.294,322.424 638.372,322.017 638.31,321.62C638.138,321.184 637.81,320.828 637.39,320.62C632.383,317.362 628.003,313.23 624.46,308.42C623.55,307.18 622.46,304.26 621.14,303.51C616.44,300.9 605.77,312.41 602,314.85Z" style="fill:rgb(255,192,198);fill-rule:nonzero;"/>
    </g>
    <g transform="matrix(1,0,0,1,-125.21,-98.18)">
        <path d="M839.52,307L847.71,316.36C849.47,318.36 851.23,320.36 852.83,322.52C856.767,327.942 859.925,333.89 862.21,340.19C863.99,344.86 865.47,349.84 864.85,354.8C864.435,357.343 863.747,359.834 862.8,362.23C861.3,366.837 859.437,371.317 857.23,375.63C855.387,378.902 853.305,382.034 851,385C844.656,393.406 837.715,401.343 830.23,408.75C827.43,411.52 826.23,416.01 825.04,419.75C822.79,426.66 817.44,432.05 812.27,437.15C810.607,438.908 808.767,440.49 806.78,441.87C803.804,443.79 800.321,444.779 796.78,444.71C795.235,444.719 793.705,444.402 792.29,443.78C788.75,442.1 786.95,438.01 786.58,434.11C786.253,430.566 786.846,426.998 788.3,423.75C793,413.34 805.07,408.83 813.6,401.23C818.6,396.78 822.43,391.18 826.21,385.65C828.77,382.193 830.909,378.444 832.58,374.48C834.48,369.39 833.74,363.37 835.41,358.21C836.11,356.02 837.41,354.05 838.12,351.88C838.83,349.71 839.07,347.14 837.74,345.27C836.743,344.075 835.47,343.141 834.03,342.55C828.58,339.79 822.48,336.23 821.44,330.2C821.024,326.862 821.897,323.487 823.88,320.77C825.853,318.086 828.162,315.667 830.75,313.57C833.12,311.43 837.13,309.06 839.52,307Z" style="fill:rgb(255,192,198);fill-rule:nonzero;"/>
    </g>
    <g transform="matrix(1,0,0,1,-125.21,-98.18)">
        <path d="M596.74,327.91C595.3,324.99 593.49,322.01 590.57,320.56C587.699,319.321 584.441,319.321 581.57,320.56C578.74,321.783 576.09,323.385 573.69,325.32L566.63,330.53C565.03,331.58 563.614,332.888 562.44,334.4C561.32,336.235 560.579,338.275 560.26,340.4C559.26,345.27 558.45,350.28 559.15,355.21C560.27,363.21 565.07,370.13 570.35,376.21C573.65,379.99 577.73,383.81 582.75,383.98C584.92,384.05 587.33,383.19 588.23,381.22C588.544,380.437 588.71,379.603 588.72,378.76C589.26,369.88 586.08,361.21 582.38,353.12C581.38,350.92 580.3,348.64 580.38,346.23C580.349,345.821 580.455,345.413 580.68,345.07C580.997,344.737 581.423,344.528 581.88,344.48C586.95,343.48 595.69,347.42 599.24,341.79C601.54,338.07 598.38,331.22 596.74,327.91Z" style="fill:rgb(255,192,198);fill-rule:nonzero;"/>
    </g>
    <g transform="matrix(1,0,0,1,-125.21,-98.18)">
        <path d="M701.09,197.89C701.027,197.161 701.137,196.428 701.41,195.75C702.22,194.31 704.34,194.75 705.94,195.11C712.37,196.73 719.15,195.26 725.78,195.64C732.41,196.02 739.86,199.33 741.2,205.83C746.005,202.421 750.15,198.164 753.43,193.27C755.27,190.51 756.87,187.36 756.62,184.06C756.26,179.3 752.26,175.74 748.62,172.73L737.62,163.73C736.175,162.401 734.506,161.338 732.69,160.59C730.14,159.72 727.37,160.14 724.69,160.14C716.69,160.14 708.11,156.49 700.98,160.14C697.98,161.67 695.75,164.3 693.59,166.86L683.75,178.5C683.01,179.244 682.47,180.162 682.18,181.17C681.9,182.59 682.63,183.99 682.89,185.42C683.35,188.02 682.23,190.8 683.09,193.29C684.52,197.44 689.56,198.03 692.64,200.41C693.78,201.29 695.58,204.3 696.95,204.26C699.32,204.21 701,199.81 701.09,197.89Z" style="fill:rgb(63,61,86);fill-rule:nonzero;"/>
    </g>
    <g transform="matrix(1,0,0,1,-125.21,-98.18)">
        <path d="M634.19,284.21C632.92,285.034 631.804,286.073 630.89,287.28C629.74,289.03 629.5,291.28 628.51,293.08C626.39,297.02 621.42,298.43 618.33,301.66C617.829,302.101 617.479,302.689 617.33,303.34C617.311,304.219 617.605,305.077 618.16,305.76L633.1,329.24C638.1,329.68 642.84,326.56 647.82,326.98C649.67,327.13 651.58,327.77 653.36,327.22C654.632,326.653 655.826,325.924 656.91,325.05C659.91,323.17 663.83,322.95 666.32,320.48C668.81,318.01 669.02,314.38 668.99,311.01C669.035,308.085 668.736,305.165 668.1,302.31C665.9,293.31 659.01,286.37 654.69,278.39C652.58,274.5 651.44,272.23 646.99,274.9C642.54,277.57 638.4,281.13 634.19,284.21Z" style="fill:rgb(63,61,86);fill-rule:nonzero;"/>
    </g>
    <g transform="matrix(1,0,0,1,-125.21,-98.18)">
        <path d="M815.6,272.34C818.408,274.163 820.94,276.379 823.12,278.92C825.39,281.85 826.68,285.45 828.87,288.45C831.06,291.45 833.87,293.61 836.27,296.29C839.92,300.35 842.39,305.29 844.81,310.2C838.886,317.908 832.43,325.192 825.49,332C824.716,332.91 823.695,333.577 822.55,333.92C820.975,334.089 819.417,333.453 818.41,332.23C817.33,331.11 816.57,329.71 815.54,328.54C813.114,326.038 809.878,324.475 806.41,324.13C802.97,323.795 799.508,323.745 796.06,323.98C795.303,324.07 794.536,323.941 793.85,323.61C793.339,323.259 792.926,322.784 792.65,322.23C788.65,315.35 789.9,306.71 791.33,298.85L794.6,280.85C795.077,277.413 795.995,274.052 797.33,270.85C798.57,268.2 801.33,263.7 804.75,264.5C808.17,265.3 812.71,270.26 815.6,272.34Z" style="fill:rgb(63,61,86);fill-rule:nonzero;"/>
    </g>
    <path d="M405.22,306.11L336.33,320.2L334.76,320.05L274.22,313.94L274.22,237.22L348.33,224.69L402.09,230.96L402.11,231.3L402.11,231.46L405.22,306.11Z" style="fill:rgb(161,118,51);fill-rule:nonzero;"/>
    <path d="M405.22,306.11L336.33,320.2L334.76,320.05L334.76,241.4L402.11,231.3L405.22,306.11Z" style="fill-opacity:0.1;fill-rule:nonzero;"/>
    <path d="M402.11,231.46L402.09,231.48L334.76,241.4L274.22,237.22L348.33,224.69L402.09,230.96L402.11,231.3L402.11,231.46Z" style="fill-opacity:0.05;fill-rule:nonzero;"/>
    <path d="M441.22,230.11L372.33,244.21L370.76,244.05L310.22,237.94L310.22,161.22L384.33,148.69L438.09,154.96L438.11,155.3L438.11,155.46L441.22,230.11Z" style="fill:rgb(63,61,86);fill-rule:nonzero;"/>
    <path d="M441.22,230.11L372.33,244.21L370.76,244.05L370.76,165.4L438.11,155.3L441.22,230.11Z" style="fill-opacity:0.1;fill-rule:nonzero;"/>
    <path d="M438.11,155.46L438.09,155.48L370.76,165.4L310.22,161.22L384.33,148.69L438.09,154.96L438.11,155.3L438.11,155.46Z" style="fill-opacity:0.05;fill-rule:nonzero;"/>
    <g transform="matrix(0.246248,-0.0189477,0.0189477,0.246248,453.787,-8.18794)">
        <g transform="matrix(1,0,0,1,443.709,1061.71)">
            <path d="M0,2.869L2.276,-3.676L8.016,2.886L9.383,-1.042L11.253,-0.392L8.839,6.545L3.094,-0.045L1.856,3.515L0,2.869Z" style="fill:white;fill-rule:nonzero;"/>
        </g>
        <g transform="matrix(1,0,0,1,453.349,1054.49)">
            <path d="M0,-4.921L1.972,-2.617L3.027,-4.629L0,-4.921ZM-3.143,-5.668L-2.401,-7.082L7.87,-6.089L6.907,-4.253L4.889,-4.448L3.185,-1.2L4.5,0.335L3.542,2.161L-3.143,-5.668Z" style="fill:white;fill-rule:nonzero;"/>
        </g>
        <g transform="matrix(1,0,0,1,460.173,1043.8)">
            <path d="M0,-9.219L0.395,-7.36C-0.322,-7.043 -0.767,-6.765 -0.939,-6.526C-1.072,-6.34 -1.117,-6.13 -1.073,-5.896C-1.03,-5.66 -0.911,-5.475 -0.718,-5.336C-0.336,-5.062 0.245,-5.17 1.022,-5.663C1.604,-6.017 2.076,-6.26 2.438,-6.395C2.8,-6.529 3.201,-6.572 3.638,-6.524C4.075,-6.476 4.475,-6.322 4.838,-6.062C5.504,-5.583 5.891,-4.899 5.997,-4.007C6.104,-3.115 5.894,-2.302 5.367,-1.57C4.791,-0.765 3.842,-0.242 2.522,0L2.028,-2.022C2.89,-2.15 3.476,-2.428 3.784,-2.858C3.928,-3.059 3.978,-3.316 3.932,-3.629C3.885,-3.944 3.764,-4.17 3.568,-4.312C3.163,-4.603 2.499,-4.432 1.576,-3.798C1.046,-3.437 0.63,-3.209 0.328,-3.116C0.025,-3.023 -0.326,-3.013 -0.724,-3.087C-1.122,-3.16 -1.477,-3.31 -1.788,-3.532C-2.478,-4.029 -2.876,-4.655 -2.984,-5.412C-3.09,-6.169 -2.884,-6.911 -2.363,-7.637C-1.747,-8.496 -0.959,-9.024 0,-9.219" style="fill:white;fill-rule:nonzero;"/>
        </g>
        <g transform="matrix(1,0,0,1,463.81,1029.62)">
            <path d="M0,-0.906L1.414,-2.403L4.348,0.368L4.368,0.347L3.606,-4.724L5.343,-6.562L6.167,-0.79L12.395,-0.111L10.695,1.689L5.13,1.067L5.11,1.088L8.361,4.158L6.947,5.656L0,-0.906Z" style="fill:white;fill-rule:nonzero;"/>
        </g>
        <g transform="matrix(0.766947,-0.641711,-0.641711,-0.766947,473.022,1021.86)">
            <rect x="2.826" y="-7.782" width="2.059" height="9.557" style="fill:white;"/>
        </g>
        <g transform="matrix(1,0,0,1,486.275,1018.31)">
            <path d="M0,-4.847L0.589,-1.872L2.495,-3.108L0,-4.847ZM-2.372,-7.039L-1.033,-7.908L7.432,-2.004L5.692,-0.877L4.029,-2.037L0.951,-0.042L1.344,1.94L-0.387,3.061L-2.372,-7.039Z" style="fill:white;fill-rule:nonzero;"/>
        </g>
        <g transform="matrix(1,0,0,1,507.384,1007.48)">
            <path d="M0,-5.683C-0.763,-5.441 -1.287,-4.973 -1.571,-4.28C-1.854,-3.584 -1.853,-2.812 -1.566,-1.961C-1.296,-1.157 -0.835,-0.569 -0.183,-0.2C0.468,0.17 1.155,0.234 1.877,-0.009C2.636,-0.265 3.161,-0.731 3.453,-1.41C3.744,-2.089 3.745,-2.857 3.458,-3.712C3.175,-4.554 2.719,-5.153 2.089,-5.509C1.46,-5.866 0.764,-5.924 0,-5.683M-3.621,-1.332C-4.071,-2.67 -4,-3.924 -3.407,-5.093C-2.815,-6.263 -1.912,-7.052 -0.698,-7.459C0.646,-7.911 1.904,-7.847 3.077,-7.266C4.25,-6.685 5.062,-5.726 5.512,-4.388C5.958,-3.058 5.895,-1.808 5.321,-0.638C4.747,0.534 3.8,1.341 2.48,1.784C1.16,2.228 -0.073,2.157 -1.22,1.57C-2.367,0.983 -3.167,0.015 -3.621,-1.332" style="fill:white;fill-rule:nonzero;"/>
        </g>
        <g transform="matrix(1,0,0,1,524.397,1006.03)">
            <path d="M0,-10.147L1.989,-10.473L3.54,-1.043L1.561,-0.718L-3.755,-6.114L-2.751,-0.008L-4.784,0.326L-6.334,-9.104L-4.325,-9.435L0.997,-4.085L0,-10.147Z" style="fill:white;fill-rule:nonzero;"/>
        </g>
        <g transform="matrix(1,0,0,1,533.436,1004.52)">
            <path d="M0,-9.494L2.044,-9.553L2.258,-2.058L5.074,-2.14L5.132,-0.08L0.272,0.059L0,-9.494Z" style="fill:white;fill-rule:nonzero;"/>
        </g>
        <g transform="matrix(0.997451,0.0713505,0.0713505,-0.997451,544.953,995.061)">
            <rect x="-0.344" y="-9.619" width="2.058" height="9.558" style="fill:white;"/>
        </g>
        <g transform="matrix(1,0,0,1,559.788,1005.72)">
            <path d="M0,-8.533L1.979,-8.145L0.14,1.234L-1.829,0.847L-4.927,-6.065L-6.117,0.007L-8.139,-0.39L-6.3,-9.767L-4.301,-9.377L-1.182,-2.505L0,-8.533Z" style="fill:white;fill-rule:nonzero;"/>
        </g>
        <g transform="matrix(1,0,0,1,568.567,1010.32)">
            <path d="M0,-10.792L5.081,-9.029L4.461,-7.241L1.325,-8.329L0.693,-6.507L3.829,-5.419L3.218,-3.658L0.082,-4.746L-0.566,-2.876L2.568,-1.788L1.948,0L-3.134,-1.765L0,-10.792Z" style="fill:white;fill-rule:nonzero;"/>
        </g>
        <g transform="matrix(1,0,0,1,588.737,1016.17)">
            <path d="M0,-5.738L-1.099,-3.952L-0.697,-3.705C-0.4,-3.523 -0.094,-3.464 0.224,-3.529C0.542,-3.593 0.786,-3.764 0.957,-4.043C1.095,-4.266 1.113,-4.516 1.011,-4.794C0.909,-5.071 0.71,-5.301 0.414,-5.483L0,-5.738ZM-1.948,-2.569L-3.329,-0.325L-2.7,0.062C-1.739,0.653 -1.042,0.596 -0.608,-0.108C-0.373,-0.49 -0.311,-0.854 -0.418,-1.204C-0.526,-1.553 -0.798,-1.862 -1.233,-2.13L-1.948,-2.569ZM-0.916,-8.18L1.456,-6.721C2.447,-6.112 2.997,-5.49 3.106,-4.853C3.215,-4.217 3.1,-3.622 2.759,-3.069C2.544,-2.717 2.295,-2.462 2.014,-2.301C1.733,-2.141 1.37,-2.027 0.924,-1.961C1.366,-1.421 1.588,-0.888 1.589,-0.367C1.59,0.155 1.458,0.631 1.193,1.062C0.732,1.81 0.118,2.236 -0.651,2.339C-1.42,2.442 -2.269,2.207 -3.197,1.636L-5.922,-0.041L-0.916,-8.18Z" style="fill:white;fill-rule:nonzero;"/>
        </g>
        <g transform="matrix(1,0,0,1,599.66,1025.07)">
            <path d="M0,-5.021L-2.661,-3.568L-0.912,-2.121L0,-5.021ZM1.381,-7.942L2.61,-6.924L-0.484,2.921L-2.081,1.599L-1.473,-0.335L-4.298,-2.674L-6.073,-1.706L-7.661,-3.02L1.381,-7.942Z" style="fill:white;fill-rule:nonzero;"/>
        </g>
        <g transform="matrix(1,0,0,1,610.047,1037.61)">
            <path d="M0,-12.283L1.371,-10.745L-1.642,-8.059L-1.622,-8.037L3.496,-8.362L5.179,-6.476L-0.643,-6.148L-1.852,0L-3.499,-1.848L-2.404,-7.34L-2.423,-7.361L-5.761,-4.384L-7.132,-5.922L0,-12.283Z" style="fill:white;fill-rule:nonzero;"/>
        </g>
        <g transform="matrix(1,0,0,1,619.299,1046.34)">
            <path d="M0,-9.806L3.01,-5.347L1.441,-4.289L-0.416,-7.04L-2.015,-5.96L-0.157,-3.209L-1.702,-2.167L-3.559,-4.918L-5.199,-3.811L-3.343,-1.06L-4.911,0L-7.921,-4.459L0,-9.806Z" style="fill:white;fill-rule:nonzero;"/>
        </g>
        <g transform="matrix(1,0,0,1,625.191,1054.91)">
            <path d="M0,-5.412L-2.229,-4.303L-2.03,-3.903C-1.55,-2.94 -0.917,-2.655 -0.131,-3.046C0.19,-3.206 0.384,-3.459 0.447,-3.804C0.512,-4.149 0.433,-4.543 0.212,-4.988L0,-5.412ZM0.599,-8.029L2.003,-5.212C2.43,-4.355 2.541,-3.565 2.338,-2.843C2.135,-2.119 1.648,-1.567 0.881,-1.184C0.442,-0.965 -0.07,-0.852 -0.657,-0.845C-1.244,-0.837 -1.825,-1.074 -2.4,-1.554L-4.773,2.617L-5.829,0.499L-3.623,-3.363L-3.727,-3.571L-7.036,-1.923L-7.955,-3.766L0.599,-8.029Z" style="fill:white;fill-rule:nonzero;"/>
        </g>
        <g transform="matrix(1,0,0,1,630.779,1065.43)">
            <path d="M0,-7.95L0.753,-5.797L-1.462,-3.154L1.926,-2.444L2.682,-0.282L-3.125,-1.475L-7.344,0L-8.017,-1.924L-3.798,-3.399L0,-7.95Z" style="fill:white;fill-rule:nonzero;"/>
        </g>
        <g transform="matrix(1,0,0,1,452.255,1124.55)">
            <path d="M0,-2.064L-2.317,-1.281L-2.06,-0.523C-1.95,-0.196 -1.738,0.043 -1.426,0.196C-1.113,0.349 -0.795,0.372 -0.473,0.262C-0.105,0.139 0.135,-0.089 0.249,-0.419C0.362,-0.75 0.337,-1.157 0.175,-1.639L0,-2.064ZM0.981,-4.524L2.028,-1.428C2.31,-0.596 2.294,0.157 1.981,0.832C1.668,1.505 1.117,1.976 0.326,2.243C-0.193,2.418 -0.728,2.46 -1.279,2.367C-1.831,2.275 -2.307,2.014 -2.708,1.586C-3.108,1.158 -3.374,0.767 -3.504,0.411L-3.914,-0.71L-7.417,0.473L-8.072,-1.464L0.981,-4.524Z" style="fill:white;fill-rule:nonzero;"/>
        </g>
        <g transform="matrix(1,0,0,1,456.415,1138.33)">
            <path d="M0,-5.381L-2.237,-4.289L-2.041,-3.889C-1.569,-2.922 -0.938,-2.63 -0.149,-3.016C0.173,-3.173 0.368,-3.425 0.435,-3.769C0.502,-4.113 0.426,-4.508 0.208,-4.955L0,-5.381ZM0.62,-7.992L2.001,-5.164C2.421,-4.305 2.527,-3.514 2.317,-2.792C2.108,-2.071 1.618,-1.523 0.847,-1.146C0.407,-0.93 -0.107,-0.822 -0.694,-0.819C-1.281,-0.817 -1.86,-1.057 -2.431,-1.541L-4.837,2.611L-5.876,0.484L-3.639,-3.361L-3.741,-3.57L-7.063,-1.947L-7.967,-3.799L0.62,-7.992Z" style="fill:white;fill-rule:nonzero;"/>
        </g>
        <g transform="matrix(1,0,0,1,462.554,1150.53)">
            <path d="M0,-9.724L2.937,-5.218L1.352,-4.185L-0.46,-6.966L-2.077,-5.912L-0.265,-3.131L-1.825,-2.114L-3.638,-4.895L-5.296,-3.814L-3.484,-1.034L-5.069,0L-8.006,-4.506L0,-9.724Z" style="fill:white;fill-rule:nonzero;"/>
        </g>
        <g transform="matrix(1,0,0,1,468.743,1163.32)">
            <path d="M0,-13.532L1.608,-11.688L-1.531,-6.573L3.963,-8.989L5.515,-7.209L-0.879,0L-2.169,-1.479L2.345,-6.536L-4.106,-3.7L-4.72,-4.405L-1.027,-10.491L-6.663,-6.632L-7.974,-8.136L0,-13.532Z" style="fill:white;fill-rule:nonzero;"/>
        </g>
        <g transform="matrix(0.74397,0.668213,0.668213,-0.74397,480.64,1162.78)">
            <rect x="-3.456" y="-9.02" width="2.056" height="9.557" style="fill:white;"/>
        </g>
        <g transform="matrix(1,0,0,1,483.87,1175.72)">
            <path d="M0,-10.933L1.65,-9.748L-1.756,-4.999C-2.073,-4.558 -2.206,-4.116 -2.154,-3.672C-2.102,-3.228 -1.876,-2.864 -1.478,-2.579C-1.021,-2.25 -0.569,-2.131 -0.123,-2.22C0.323,-2.309 0.723,-2.6 1.077,-3.093L4.424,-7.759L6.068,-6.579L2.462,-1.553C2.145,-1.111 1.702,-0.734 1.132,-0.423C0.563,-0.113 -0.05,0 -0.706,-0.089C-1.362,-0.178 -1.984,-0.433 -2.571,-0.855C-3.636,-1.619 -4.202,-2.473 -4.269,-3.42C-4.336,-4.368 -4.135,-5.168 -3.666,-5.823L0,-10.933Z" style="fill:white;fill-rule:nonzero;"/>
        </g>
        <g transform="matrix(1,0,0,1,494.765,1185.01)">
            <path d="M0,-12.878L2.182,-11.77L1.182,-5.852L5.375,-10.147L7.479,-9.076L4.245,0L2.496,-0.889L4.792,-7.267L-0.131,-2.225L-0.965,-2.649L0.185,-9.673L-3.599,-3.987L-5.377,-4.892L0,-12.878Z" style="fill:white;fill-rule:nonzero;"/>
        </g>
        <g transform="matrix(1,0,0,1,517.908,1184.33)">
            <path d="M0,4.733L-0.713,3.343L0.804,2.79L1.464,4.06C1.923,3.738 2.244,3.186 2.425,2.403C2.632,1.502 2.563,0.729 2.213,0.085C1.864,-0.56 1.297,-0.974 0.512,-1.155C-0.25,-1.33 -0.933,-1.208 -1.538,-0.788C-2.142,-0.369 -2.542,0.262 -2.736,1.102C-2.933,1.957 -2.864,2.713 -2.528,3.37C-2.192,4.027 -1.67,4.437 -0.961,4.6C-0.697,4.662 -0.377,4.706 0,4.733M2.425,5.94L3.266,7.526L1.712,8.072L0.959,6.571C0.108,6.676 -0.627,6.658 -1.246,6.514C-2.621,6.197 -3.644,5.479 -4.314,4.361C-4.984,3.243 -5.154,1.966 -4.823,0.534C-4.55,-0.647 -3.875,-1.616 -2.797,-2.371C-1.719,-3.125 -0.473,-3.339 0.941,-3.012C2.265,-2.707 3.274,-1.996 3.971,-0.879C4.666,0.237 4.861,1.459 4.554,2.788C4.24,4.149 3.531,5.2 2.425,5.94" style="fill:white;fill-rule:nonzero;"/>
        </g>
        <g transform="matrix(1,0,0,1,528.227,1193.17)">
            <path d="M0,-10.012L2.024,-9.853L1.566,-4.026C1.523,-3.485 1.639,-3.037 1.914,-2.685C2.188,-2.332 2.569,-2.137 3.057,-2.098C3.618,-2.054 4.067,-2.185 4.403,-2.492C4.738,-2.799 4.93,-3.255 4.977,-3.861L5.428,-9.585L7.445,-9.426L6.96,-3.259C6.917,-2.717 6.732,-2.165 6.406,-1.605C6.08,-1.043 5.613,-0.632 5.006,-0.367C4.398,-0.104 3.734,0 3.013,-0.058C1.707,-0.16 0.781,-0.6 0.233,-1.374C-0.314,-2.151 -0.556,-2.94 -0.493,-3.742L0,-10.012Z" style="fill:white;fill-rule:nonzero;"/>
        </g>
        <g transform="matrix(1,0,0,1,544.729,1190.22)">
            <path d="M0,-3.521L-0.952,-0.642L1.314,-0.779L0,-3.521ZM-0.984,-6.597L0.608,-6.693L5.069,2.613L3,2.737L2.123,0.909L-1.537,1.128L-2.173,3.048L-4.23,3.172L-0.984,-6.597Z" style="fill:white;fill-rule:nonzero;"/>
        </g>
        <g transform="matrix(1,0,0,1,553.78,1191.57)">
            <path d="M0,-9.008L2.009,-9.389L3.405,-2.023L6.173,-2.547L6.557,-0.525L1.779,0.381L0,-9.008Z" style="fill:white;fill-rule:nonzero;"/>
        </g>
        <g transform="matrix(0.960417,-0.278565,-0.278565,-0.960417,561.947,1181.32)">
            <rect x="1.29" y="-9.082" width="2.056" height="9.557" style="fill:white;"/>
        </g>
        <g transform="matrix(1,0,0,1,569.33,1184.26)">
            <path d="M0,-5.68L5.969,-8.066L6.722,-6.18L4.687,-5.367L7.48,1.622L5.567,2.386L2.774,-4.603L0.754,-3.795L0,-5.68Z" style="fill:white;fill-rule:nonzero;"/>
        </g>
        <g transform="matrix(1,0,0,1,578.74,1177.6)">
            <path d="M0,-2.976L1.998,-4.078L4.973,-2.334L5.107,-5.793L7.112,-6.899L6.906,-0.974L9.064,2.939L7.28,3.923L5.121,0.01L0,-2.976Z" style="fill:white;fill-rule:nonzero;"/>
        </g>
        <g transform="matrix(1,0,0,1,600.44,1165.55)">
            <path d="M0,1.043L1.723,3.038L2.28,2.555C3.135,1.816 3.292,1.135 2.751,0.509C2.458,0.17 2.129,0 1.764,-0.003C1.397,-0.006 1.021,0.161 0.635,0.495L0,1.043ZM-2.432,-1.77L-1.062,-0.186L-0.705,-0.493C-0.441,-0.72 -0.293,-0.995 -0.259,-1.317C-0.225,-1.641 -0.313,-1.924 -0.526,-2.171C-0.699,-2.37 -0.932,-2.464 -1.228,-2.449C-1.522,-2.436 -1.801,-2.315 -2.064,-2.089L-2.432,-1.77ZM-5.037,-1.637L-2.931,-3.456C-2.051,-4.217 -1.29,-4.553 -0.65,-4.465C-0.011,-4.376 0.521,-4.087 0.945,-3.596C1.216,-3.283 1.384,-2.97 1.452,-2.653C1.52,-2.337 1.519,-1.956 1.448,-1.511C2.097,-1.77 2.67,-1.82 3.168,-1.663C3.665,-1.507 4.08,-1.237 4.41,-0.854C4.984,-0.189 5.204,0.524 5.07,1.288C4.936,2.053 4.456,2.792 3.631,3.504L1.21,5.596L-5.037,-1.637Z" style="fill:white;fill-rule:nonzero;"/>
        </g>
        <g transform="matrix(1,0,0,1,606.199,1159.69)">
            <path d="M0,-3.593L1.853,-1.93L2.149,-2.262C2.869,-3.063 2.901,-3.756 2.248,-4.343C1.98,-4.583 1.676,-4.669 1.331,-4.603C0.987,-4.535 0.649,-4.317 0.317,-3.947L0,-3.593ZM-2.653,-3.188L-0.55,-5.53C0.09,-6.242 0.783,-6.637 1.53,-6.713C2.276,-6.79 2.97,-6.542 3.608,-5.969C3.973,-5.641 4.267,-5.205 4.489,-4.662C4.712,-4.119 4.706,-3.492 4.472,-2.782L9.224,-2.11L7.642,-0.349L3.238,-0.979L3.082,-0.806L5.833,1.665L4.457,3.197L-2.653,-3.188Z" style="fill:white;fill-rule:nonzero;"/>
        </g>
        <g transform="matrix(1,0,0,1,611.211,1148.47)">
            <path d="M0,-1.053L3.076,-5.466L4.629,-4.383L2.73,-1.661L4.312,-0.558L6.211,-3.28L7.739,-2.214L5.842,0.509L7.465,1.64L9.363,-1.082L10.916,0L7.84,4.413L0,-1.053Z" style="fill:white;fill-rule:nonzero;"/>
        </g>
        <g transform="matrix(1,0,0,1,621.542,1141.6)">
            <path d="M0,-4.915L1.986,-2.623L3.029,-4.641L0,-4.915ZM-3.147,-5.644L-2.414,-7.061L7.863,-6.13L6.911,-4.288L4.892,-4.472L3.207,-1.214L4.531,0.314L3.584,2.146L-3.147,-5.644Z" style="fill:white;fill-rule:nonzero;"/>
        </g>
        <g transform="matrix(1,0,0,1,624.994,1125.09)">
            <path d="M0,0.509L5.579,2.435L5.846,1.664C6.121,0.866 6.13,0.135 5.871,-0.529C5.613,-1.193 4.975,-1.701 3.957,-2.053C3.365,-2.257 2.798,-2.313 2.257,-2.223C1.715,-2.134 1.281,-1.882 0.955,-1.468C0.631,-1.053 0.395,-0.634 0.247,-0.207L0,0.509ZM-2.384,1.88L-1.319,-1.203C-0.864,-2.518 -0.083,-3.434 1.023,-3.951C2.131,-4.467 3.363,-4.49 4.721,-4.022C6.083,-3.552 7.032,-2.761 7.567,-1.649C8.103,-0.537 8.132,0.706 7.657,2.082L6.649,4.999L-2.384,1.88Z" style="fill:white;fill-rule:nonzero;"/>
        </g>
        <g transform="matrix(1,0,0,1,487.455,1073.42)">
            <path d="M0,41.492L2.631,41.492C4.345,41.492 6.308,40.998 8.521,40.009C10.735,39.019 12.739,37.413 14.534,35.189C16.329,32.966 17.42,30.12 17.809,26.652L19.247,26.652C19.124,28.141 19.063,30.058 19.063,32.404C19.063,36.668 19.206,40.177 19.491,42.93C16.411,42.807 11.209,42.747 3.886,42.747C-4.253,42.747 -10.159,42.807 -13.831,42.93L-13.831,41.676L5.141,0L2.02,0C0.062,0 -1.897,0.424 -3.855,1.27C-5.813,2.117 -7.553,3.554 -9.072,5.585C-10.592,7.615 -11.577,10.292 -12.025,13.617L-13.463,13.617C-13.341,12.536 -13.28,11.026 -13.28,9.089C-13.28,5.988 -13.423,2.478 -13.708,-1.438C-11.118,-1.316 -6.752,-1.254 -0.612,-1.254C8.404,-1.254 14.942,-1.316 19.002,-1.438L19.002,-0.183L0,41.492Z" style="fill:white;fill-rule:nonzero;"/>
        </g>
        <g transform="matrix(1,0,0,1,529.62,1113.31)">
            <path d="M0,-38.278C-1.55,-36.412 -2.749,-33.811 -3.595,-30.476C-4.442,-27.14 -4.865,-23.32 -4.865,-19.016C-4.865,-14.692 -4.386,-10.872 -3.427,-7.557C-2.468,-4.242 -1.173,-1.687 0.459,0.108C2.091,1.903 3.886,2.8 5.845,2.8C7.905,2.8 9.71,1.867 11.26,0C12.811,-1.866 14.009,-4.466 14.856,-7.802C15.703,-11.137 16.125,-14.957 16.125,-19.261C16.125,-23.586 15.646,-27.406 14.688,-30.72C13.729,-34.035 12.433,-36.591 10.801,-38.385C9.169,-40.18 7.375,-41.079 5.416,-41.079C3.355,-41.079 1.55,-40.145 0,-38.278M18.083,-39.518C21.633,-37.722 24.387,-35.116 26.345,-31.7C28.304,-28.283 29.283,-24.218 29.283,-19.507C29.283,-14.896 28.278,-10.816 26.269,-7.266C24.259,-3.717 21.459,-0.964 17.87,0.995C14.279,2.953 10.189,3.933 5.6,3.933C0.867,3.933 -3.274,3.035 -6.823,1.24C-10.373,-0.555 -13.126,-3.161 -15.085,-6.578C-17.043,-9.995 -18.022,-14.059 -18.022,-18.772C-18.022,-23.382 -17.018,-27.462 -15.009,-31.011C-13,-34.561 -10.205,-37.314 -6.625,-39.273C-3.044,-41.231 1.05,-42.211 5.661,-42.211C10.393,-42.211 14.535,-41.312 18.083,-39.518" style="fill:white;fill-rule:nonzero;"/>
        </g>
        <g transform="matrix(1,0,0,1,590.389,1084.41)">
            <path d="M0,19.52C0,16.237 -0.791,13.738 -2.371,12.024C-3.952,10.31 -6.467,9.454 -9.914,9.454L-10.802,9.454L-10.802,25.304C-10.802,26.814 -10.694,27.925 -10.48,28.639C-10.267,29.353 -9.879,29.843 -9.317,30.108C-8.757,30.374 -7.885,30.505 -6.701,30.505C-2.233,30.505 0,26.844 0,19.52M-9.563,-10.726C-10.042,-10.43 -10.368,-9.905 -10.541,-9.151C-10.715,-8.395 -10.802,-7.273 -10.802,-5.785L-10.802,8.382L-9.088,8.382C-6.823,8.382 -5.248,7.46 -4.36,5.614C-3.474,3.768 -3.029,1.284 -3.029,-1.837C-3.029,-4.999 -3.366,-7.345 -4.039,-8.875C-4.712,-10.405 -5.835,-11.169 -7.405,-11.169C-8.364,-11.169 -9.083,-11.022 -9.563,-10.726M5.523,10.631C8.185,11.723 10.123,13.07 11.337,14.67C12.55,16.272 13.157,17.981 13.157,19.796C13.157,23.876 11.521,26.92 8.246,28.929C4.973,30.939 0.336,31.944 -5.661,31.944L-8.721,31.882C-11.536,31.801 -14.311,31.76 -17.044,31.76C-21.939,31.76 -25.581,31.821 -27.968,31.944L-27.968,30.689C-26.621,30.627 -25.647,30.465 -25.045,30.2C-24.443,29.935 -24.035,29.445 -23.821,28.731C-23.607,28.017 -23.5,26.874 -23.5,25.304L-23.5,-5.785C-23.5,-7.355 -23.612,-8.498 -23.836,-9.211C-24.062,-9.925 -24.475,-10.415 -25.076,-10.68C-25.678,-10.945 -26.642,-11.109 -27.968,-11.169L-27.968,-12.424C-25.581,-12.302 -21.98,-12.241 -17.166,-12.241C-16.351,-12.241 -13.953,-12.271 -9.976,-12.333L-7.099,-12.363C-3.387,-12.363 -0.26,-11.95 2.279,-11.125C4.819,-10.297 6.721,-9.145 7.986,-7.667C9.251,-6.187 9.883,-4.469 9.883,-2.51C9.883,-0.959 9.348,0.59 8.277,2.141C7.206,3.691 5.579,5.053 3.396,6.225C1.213,7.399 -1.449,8.179 -4.59,8.567L-4.59,8.689C-0.511,8.893 2.861,9.541 5.523,10.631" style="fill:white;fill-rule:nonzero;"/>
        </g>
        <g transform="matrix(13.9022,0,0,-13.9022,496.056,1143.84)">
            <path d="M0,0.246C0.207,-0.049 0.332,-0.166 0.456,-0.207C0.582,-0.242 0.73,-0.196 1,-0.099C0.765,0.105 0.679,0.215 0.558,0.247C0.517,0.261 0.474,0.265 0.422,0.265C0.327,0.265 0.2,0.25 0,0.246Z" style="fill:url(#_Linear1);fill-rule:nonzero;"/>
        </g>
        <g transform="matrix(1.37998,5.74682,5.74682,-1.37998,508.57,1134.92)">
            <path d="M0.463,-0.506C0.727,-0.532 1.033,-0.406 1.607,0.005C0.964,0.297 0.715,0.486 0.463,0.516C0.209,0.559 -0.007,0.423 -0.551,0.202C-0.072,-0.236 0.195,-0.462 0.463,-0.506Z" style="fill:url(#_Linear2);fill-rule:nonzero;"/>
        </g>
        <g transform="matrix(14.6489,0,0,-14.6489,503.255,1150.37)">
            <path d="M0.32,0.191C0.241,0.169 0.143,0.136 0,0.104C0.064,0.045 0.119,-0.007 0.17,-0.048C0.223,-0.087 0.269,-0.119 0.31,-0.144C0.351,-0.17 0.387,-0.19 0.421,-0.204C0.456,-0.215 0.489,-0.221 0.52,-0.222C0.647,-0.224 0.765,-0.161 1,0.001C0.738,0.135 0.632,0.216 0.517,0.224C0.511,0.225 0.504,0.225 0.497,0.225C0.445,0.225 0.389,0.211 0.32,0.191Z" style="fill:url(#_Linear3);fill-rule:nonzero;"/>
        </g>
        <g transform="matrix(14.5567,0,0,-14.5567,512.191,1155.35)">
            <path d="M0.478,0.227C0.421,0.219 0.366,0.193 0.294,0.15C0.221,0.109 0.129,0.046 0,-0.015C0.073,-0.063 0.143,-0.092 0.201,-0.121C0.26,-0.149 0.311,-0.173 0.357,-0.188C0.45,-0.215 0.518,-0.224 0.58,-0.213C0.641,-0.204 0.697,-0.171 0.763,-0.116C0.828,-0.061 0.904,0.015 1,0.118C0.858,0.158 0.755,0.185 0.676,0.21C0.622,0.225 0.577,0.23 0.536,0.23C0.516,0.23 0.497,0.229 0.478,0.227Z" style="fill:url(#_Linear4);fill-rule:nonzero;"/>
        </g>
        <g transform="matrix(13.7472,0,0,-13.7472,522.303,1158.09)">
            <path d="M0.438,0.226C0.321,0.176 0.238,0.062 0,-0.143C0.087,-0.168 0.162,-0.19 0.228,-0.208C0.295,-0.221 0.352,-0.229 0.402,-0.235C0.502,-0.246 0.573,-0.242 0.634,-0.212C0.695,-0.185 0.746,-0.139 0.802,-0.069C0.858,0 0.921,0.097 1,0.23C0.922,0.23 0.855,0.237 0.797,0.243C0.739,0.248 0.689,0.25 0.645,0.251C0.626,0.251 0.608,0.252 0.591,0.252C0.53,0.252 0.482,0.246 0.438,0.226Z" style="fill:url(#_Linear5);fill-rule:nonzero;"/>
        </g>
        <g transform="matrix(12.4751,0,0,-12.4751,532.941,1158.43)">
            <path d="M0.778,0.292C0.714,0.284 0.659,0.281 0.611,0.272C0.516,0.258 0.449,0.231 0.393,0.197C0.336,0.16 0.289,0.104 0.232,0.022C0.174,-0.06 0.106,-0.171 0,-0.305C0.098,-0.319 0.182,-0.319 0.256,-0.321C0.329,-0.322 0.392,-0.321 0.447,-0.318C0.555,-0.304 0.63,-0.28 0.69,-0.239C0.809,-0.159 0.875,0.008 1,0.323C0.915,0.311 0.842,0.301 0.778,0.292Z" style="fill:url(#_Linear6);fill-rule:nonzero;"/>
        </g>
        <g transform="matrix(10.9128,0,0,-10.9128,543.634,1157.19)">
            <path d="M0.657,0.353C0.318,0.252 0.28,0.159 0.113,-0.224C0.082,-0.294 0.045,-0.374 0,-0.465C0.137,-0.448 0.252,-0.436 0.348,-0.418C0.442,-0.396 0.519,-0.375 0.582,-0.351C0.708,-0.305 0.779,-0.237 0.833,-0.133C0.897,-0.005 0.942,0.167 1,0.465C0.862,0.411 0.747,0.387 0.657,0.353Z" style="fill:url(#_Linear7);fill-rule:nonzero;"/>
        </g>
        <g transform="matrix(5.92767,0,0,-5.92767,512.569,1143.14)">
            <path d="M0.023,0.248C-0.011,0.052 -0.007,-0.088 0.035,-0.218C0.12,-0.478 0.374,-0.69 1,-1.008C0.96,-0.325 1.033,0.019 0.943,0.249C0.922,0.307 0.892,0.358 0.853,0.408C0.817,0.464 0.771,0.518 0.713,0.575C0.655,0.631 0.584,0.69 0.499,0.755C0.417,0.826 0.33,0.914 0.222,1.008C0.124,0.693 0.059,0.447 0.023,0.248Z" style="fill:url(#_Linear8);fill-rule:nonzero;"/>
        </g>
        <g transform="matrix(7.33637,0,0,-7.33637,519.727,1146.92)">
            <path d="M0.006,0.095C0.016,-0.066 0.042,-0.183 0.098,-0.281C0.153,-0.382 0.247,-0.444 0.388,-0.519C0.528,-0.599 0.727,-0.653 1,-0.73C0.926,-0.451 0.89,-0.247 0.855,-0.091C0.819,0.063 0.785,0.172 0.733,0.263C0.68,0.352 0.605,0.415 0.488,0.476C0.43,0.509 0.367,0.549 0.288,0.588C0.212,0.631 0.115,0.664 0.02,0.73C-0.004,0.452 -0.003,0.256 0.006,0.095Z" style="fill:url(#_Linear9);fill-rule:nonzero;"/>
        </g>
        <g transform="matrix(9.31962,0,0,-9.31962,526.783,1149.01)">
            <path d="M0.233,-0.285C0.293,-0.347 0.373,-0.394 0.494,-0.426C0.555,-0.439 0.626,-0.45 0.709,-0.461C0.792,-0.474 0.888,-0.483 1,-0.483C0.901,-0.285 0.842,-0.132 0.79,-0.012C0.739,0.107 0.696,0.187 0.639,0.244C0.582,0.298 0.513,0.338 0.412,0.372C0.362,0.388 0.303,0.401 0.234,0.417C0.167,0.438 0.09,0.46 0,0.484C0.07,0.062 0.114,-0.164 0.233,-0.285Z" style="fill:url(#_Linear10);fill-rule:nonzero;"/>
        </g>
        <g transform="matrix(10.9044,0,0,-10.9044,534.322,1149.66)">
            <path d="M0.167,-0.057C0.216,-0.154 0.263,-0.221 0.324,-0.266C0.384,-0.315 0.459,-0.33 0.565,-0.337C0.619,-0.339 0.68,-0.342 0.752,-0.336C0.823,-0.327 0.905,-0.317 1,-0.305C0.777,0.011 0.702,0.168 0.586,0.253C0.528,0.294 0.463,0.313 0.371,0.319C0.28,0.336 0.161,0.329 0,0.345C0.064,0.167 0.117,0.04 0.167,-0.057Z" style="fill:url(#_Linear11);fill-rule:nonzero;"/>
        </g>
        <g transform="matrix(11.9887,0,0,-11.9887,542.139,1149.07)">
            <path d="M0.235,0.306C0.17,0.298 0.093,0.288 0,0.276C0.043,0.204 0.082,0.141 0.117,0.085C0.314,-0.22 0.389,-0.285 0.693,-0.229C0.775,-0.208 0.878,-0.188 1,-0.14C0.817,0.038 0.717,0.171 0.63,0.24C0.558,0.3 0.494,0.32 0.4,0.323L0.395,0.323C0.35,0.323 0.298,0.317 0.235,0.306Z" style="fill:url(#_Linear12);fill-rule:nonzero;"/>
        </g>
        <g transform="matrix(9.09588,0,0,-9.09588,554.077,1154.2)">
            <path d="M0.728,0.512C0.647,0.473 0.579,0.437 0.521,0.402C0.406,0.332 0.33,0.269 0.273,0.193C0.158,0.041 0.143,-0.203 0,-0.666C0.511,-0.515 0.734,-0.401 0.851,-0.23C0.967,-0.063 0.981,0.186 1,0.666C0.896,0.607 0.806,0.557 0.728,0.512Z" style="fill:url(#_Linear13);fill-rule:nonzero;"/>
        </g>
        <g transform="matrix(7.48727,0,0,-7.48727,564.049,1149.41)">
            <path d="M0.631,0.677C0.545,0.607 0.475,0.54 0.412,0.487C0.284,0.381 0.206,0.288 0.156,0.178C0.054,-0.046 0.072,-0.316 0,-0.927C0.289,-0.769 0.501,-0.655 0.645,-0.531C0.791,-0.412 0.885,-0.315 0.936,-0.194C1.034,0.05 1.011,0.338 0.926,0.927C0.82,0.821 0.715,0.75 0.631,0.677Z" style="fill:url(#_Linear14);fill-rule:nonzero;"/>
        </g>
        <g transform="matrix(6.59704,0,0,-6.59704,572.784,1142.77)">
            <path d="M0.457,0.797C0.375,0.698 0.304,0.613 0.247,0.534C0.134,0.376 0.067,0.251 0.029,0.121C-0.047,-0.144 0.047,-0.471 0.072,-1.16C0.672,-0.678 0.908,-0.387 0.978,-0.093C1.049,0.193 0.944,0.533 0.724,1.16C0.622,1.021 0.534,0.901 0.457,0.797Z" style="fill:url(#_Linear15);fill-rule:nonzero;"/>
        </g>
        <g transform="matrix(12.6309,0,0,-12.6309,549.902,1146.06)">
            <path d="M0,0.153C0.211,-0.096 0.316,-0.208 0.44,-0.246C0.502,-0.266 0.568,-0.259 0.656,-0.228C0.7,-0.214 0.75,-0.193 0.808,-0.168C0.863,-0.138 0.927,-0.103 1,-0.063C0.731,0.124 0.626,0.234 0.507,0.266C0.486,0.272 0.465,0.274 0.443,0.274C0.344,0.274 0.224,0.223 0,0.153Z" style="fill:url(#_Linear16);fill-rule:nonzero;"/>
        </g>
        <g transform="matrix(12.8237,0,0,-12.8237,557.302,1141.8)">
            <path d="M0,0.055C0.239,-0.14 0.368,-0.245 0.49,-0.253C0.551,-0.257 0.615,-0.238 0.697,-0.195C0.738,-0.173 0.78,-0.14 0.831,-0.103C0.88,-0.063 0.94,-0.023 1,0.037C0.71,0.161 0.583,0.258 0.47,0.259C0.462,0.26 0.455,0.26 0.448,0.26C0.339,0.26 0.235,0.183 0,0.055Z" style="fill:url(#_Linear17);fill-rule:nonzero;"/>
        </g>
        <g transform="matrix(12.5194,0,0,-12.5194,563.975,1136.26)">
            <path d="M0.426,0.266C0.309,0.25 0.225,0.151 0,-0.034C0.28,-0.192 0.418,-0.258 0.547,-0.245C0.612,-0.238 0.671,-0.205 0.742,-0.139C0.778,-0.106 0.817,-0.067 0.861,-0.019C0.901,0.034 0.947,0.094 1,0.164C0.717,0.216 0.58,0.269 0.468,0.269C0.454,0.269 0.44,0.268 0.426,0.266Z" style="fill:url(#_Linear18);fill-rule:nonzero;"/>
        </g>
        <g transform="matrix(6.95269,0,0,-6.95269,497.833,1133.43)">
            <path d="M0.001,0.112C0.004,-0.069 0.056,-0.197 0.123,-0.308C0.196,-0.416 0.288,-0.508 0.437,-0.58C0.585,-0.651 0.771,-0.715 1,-0.781C0.994,-0.531 0.995,-0.345 0.98,-0.198C0.964,-0.052 0.951,0.07 0.892,0.167C0.839,0.268 0.738,0.342 0.611,0.439C0.481,0.536 0.303,0.638 0.057,0.781C0.016,0.511 -0.004,0.291 0.001,0.112Z" style="fill:url(#_Linear19);fill-rule:nonzero;"/>
        </g>
        <g transform="matrix(4.29564,0,0,-4.29564,577.01,1131.19)">
            <path d="M0.499,0.299C0.365,0.037 0.225,-0.161 0.14,-0.309C0.051,-0.454 0,-0.537 0,-0.537C0.084,-0.606 0.168,-0.675 0.253,-0.744C0.253,-0.744 0.306,-0.658 0.398,-0.508C0.486,-0.355 0.631,-0.149 0.77,0.122C0.843,0.266 0.921,0.429 1,0.6L0.714,0.744C0.64,0.584 0.567,0.435 0.499,0.299Z" style="fill:url(#_Linear20);fill-rule:nonzero;"/>
        </g>
        <g transform="matrix(13.9022,0,0,-13.9022,567.403,1044.96)">
            <path d="M0,0.143C0.235,-0.061 0.321,-0.171 0.442,-0.203C0.557,-0.242 0.69,-0.208 1,-0.201C0.793,0.093 0.668,0.21 0.544,0.251C0.515,0.259 0.486,0.262 0.454,0.262C0.345,0.262 0.209,0.218 0,0.143Z" style="fill:url(#_Linear21);fill-rule:nonzero;"/>
        </g>
        <g transform="matrix(1.3802,5.74677,5.74677,-1.3802,567.411,1047.52)">
            <path d="M0.536,-0.516C0.79,-0.559 1.007,-0.422 1.551,-0.202C1.072,0.236 0.805,0.462 0.536,0.506C0.273,0.532 -0.033,0.406 -0.607,-0.004C0.035,-0.297 0.285,-0.486 0.536,-0.516Z" style="fill:url(#_Linear22);fill-rule:nonzero;"/>
        </g>
        <g transform="matrix(14.6489,0,0,-14.6489,559.457,1037.89)">
            <path d="M0,0.004C0.262,-0.13 0.368,-0.211 0.483,-0.219C0.54,-0.224 0.601,-0.209 0.68,-0.186C0.759,-0.164 0.857,-0.131 1,-0.099C0.936,-0.04 0.881,0.012 0.83,0.053C0.777,0.092 0.731,0.124 0.69,0.149C0.649,0.175 0.613,0.195 0.579,0.209C0.544,0.22 0.511,0.226 0.48,0.227L0.476,0.227C0.351,0.227 0.232,0.165 0,0.004Z" style="fill:url(#_Linear23);fill-rule:nonzero;"/>
        </g>
        <g transform="matrix(14.5567,0,0,-14.5567,550.614,1032.97)">
            <path d="M0.42,0.223C0.359,0.213 0.303,0.18 0.237,0.125C0.172,0.07 0.096,-0.006 0,-0.108C0.142,-0.148 0.245,-0.175 0.324,-0.2C0.404,-0.223 0.466,-0.224 0.522,-0.217C0.579,-0.209 0.633,-0.183 0.706,-0.141C0.779,-0.1 0.87,-0.037 1,0.024C0.927,0.073 0.857,0.101 0.799,0.131C0.739,0.158 0.689,0.182 0.643,0.197C0.576,0.217 0.522,0.227 0.474,0.227C0.455,0.227 0.437,0.226 0.42,0.223Z" style="fill:url(#_Linear24);fill-rule:nonzero;"/>
        </g>
        <g transform="matrix(13.7472,0,0,-13.7472,541.311,1030.21)">
            <path d="M0.366,0.221C0.305,0.193 0.255,0.147 0.198,0.077C0.142,0.008 0.079,-0.089 0,-0.222C0.078,-0.222 0.145,-0.228 0.203,-0.234C0.261,-0.239 0.311,-0.242 0.355,-0.242C0.443,-0.246 0.505,-0.243 0.562,-0.218C0.679,-0.168 0.762,-0.054 1,0.151C0.913,0.177 0.838,0.198 0.772,0.216C0.705,0.229 0.648,0.238 0.598,0.243C0.566,0.247 0.536,0.249 0.509,0.249C0.453,0.249 0.407,0.24 0.366,0.221Z" style="fill:url(#_Linear25);fill-rule:nonzero;"/>
        </g>
        <g transform="matrix(12.4751,0,0,-12.4751,531.945,1029.76)">
            <path d="M0.553,0.318C0.445,0.304 0.37,0.281 0.31,0.239C0.191,0.16 0.125,-0.007 0,-0.322C0.085,-0.31 0.158,-0.3 0.222,-0.292C0.286,-0.283 0.341,-0.28 0.389,-0.272C0.484,-0.257 0.551,-0.231 0.607,-0.196C0.664,-0.159 0.711,-0.104 0.768,-0.021C0.826,0.061 0.894,0.172 1,0.305C0.902,0.319 0.818,0.319 0.744,0.321C0.722,0.322 0.7,0.322 0.68,0.322C0.633,0.322 0.591,0.321 0.553,0.318Z" style="fill:url(#_Linear26);fill-rule:nonzero;"/>
        </g>
        <g transform="matrix(10.9128,0,0,-10.9128,522.815,1030.99)">
            <path d="M0.653,0.418C0.558,0.396 0.481,0.375 0.418,0.351C0.292,0.305 0.221,0.237 0.167,0.133C0.103,0.005 0.058,-0.167 0,-0.465C0.138,-0.411 0.253,-0.387 0.343,-0.353C0.682,-0.252 0.72,-0.159 0.887,0.224C0.918,0.294 0.954,0.374 1,0.465C0.862,0.448 0.748,0.436 0.653,0.418Z" style="fill:url(#_Linear27);fill-rule:nonzero;"/>
        </g>
        <g transform="matrix(5.92767,0,0,-5.92767,558.865,1045.05)">
            <path d="M0.057,-0.249C0.078,-0.307 0.108,-0.358 0.147,-0.408C0.183,-0.464 0.229,-0.518 0.287,-0.575C0.345,-0.631 0.416,-0.69 0.501,-0.755C0.583,-0.826 0.671,-0.914 0.778,-1.008C0.876,-0.693 0.941,-0.446 0.977,-0.248C1.011,-0.053 1.007,0.088 0.965,0.218C0.88,0.478 0.626,0.69 0,1.008C0.04,0.325 -0.033,-0.019 0.057,-0.249Z" style="fill:url(#_Linear28);fill-rule:nonzero;"/>
        </g>
        <g transform="matrix(7.33637,0,0,-7.33637,550.298,1041.27)">
            <path d="M0.145,0.091C0.181,-0.063 0.214,-0.172 0.267,-0.263C0.32,-0.352 0.395,-0.416 0.512,-0.476C0.57,-0.509 0.633,-0.549 0.712,-0.588C0.788,-0.631 0.885,-0.664 0.98,-0.73C1.004,-0.452 1.003,-0.256 0.994,-0.095C0.984,0.066 0.958,0.183 0.902,0.281C0.847,0.382 0.753,0.444 0.612,0.519C0.472,0.599 0.273,0.653 0,0.729C0.074,0.451 0.11,0.247 0.145,0.091Z" style="fill:url(#_Linear29);fill-rule:nonzero;"/>
        </g>
        <g transform="matrix(9.31962,0,0,-9.31962,541.258,1039.18)">
            <path d="M0,0.484C0.099,0.285 0.158,0.132 0.21,0.012C0.261,-0.106 0.304,-0.187 0.361,-0.244C0.418,-0.298 0.487,-0.338 0.588,-0.371C0.638,-0.388 0.697,-0.401 0.766,-0.417C0.833,-0.438 0.91,-0.459 1,-0.483C0.93,-0.061 0.886,0.164 0.767,0.286C0.707,0.348 0.627,0.394 0.506,0.426C0.445,0.439 0.374,0.451 0.291,0.462C0.208,0.474 0.113,0.484 0.002,0.484L0,0.484Z" style="fill:url(#_Linear30);fill-rule:nonzero;"/>
        </g>
        <g transform="matrix(10.9044,0,0,-10.9044,532.135,1038.56)">
            <path d="M0.248,0.338C0.177,0.33 0.095,0.32 0,0.308C0.223,-0.008 0.298,-0.165 0.414,-0.25C0.472,-0.291 0.537,-0.31 0.629,-0.316C0.72,-0.334 0.839,-0.326 1,-0.342C0.936,-0.164 0.883,-0.037 0.833,0.06C0.784,0.157 0.737,0.223 0.676,0.269C0.616,0.317 0.541,0.332 0.435,0.34C0.405,0.341 0.373,0.342 0.338,0.342C0.31,0.342 0.28,0.341 0.248,0.338Z" style="fill:url(#_Linear31);fill-rule:nonzero;"/>
        </g>
        <g transform="matrix(11.9887,0,0,-11.9887,523.234,1039.58)">
            <path d="M0.307,0.268C0.225,0.246 0.122,0.226 0,0.178C0.183,0.001 0.283,-0.133 0.37,-0.202C0.442,-0.261 0.506,-0.281 0.6,-0.285C0.646,-0.285 0.7,-0.279 0.765,-0.268C0.83,-0.259 0.907,-0.249 1,-0.237C0.957,-0.166 0.918,-0.102 0.883,-0.047C0.727,0.194 0.648,0.286 0.471,0.286C0.424,0.286 0.371,0.279 0.307,0.268Z" style="fill:url(#_Linear32);fill-rule:nonzero;"/>
        </g>
        <g transform="matrix(9.09588,0,0,-9.09588,514.189,1033.98)">
            <path d="M0.149,0.23C0.033,0.063 0.019,-0.186 0,-0.666C0.104,-0.607 0.194,-0.557 0.272,-0.512C0.353,-0.473 0.421,-0.437 0.479,-0.402C0.594,-0.332 0.67,-0.269 0.727,-0.193C0.842,-0.041 0.857,0.204 1,0.666C0.489,0.515 0.266,0.4 0.149,0.23Z" style="fill:url(#_Linear33);fill-rule:nonzero;"/>
        </g>
        <g transform="matrix(7.48727,0,0,-7.48727,505.825,1038.77)">
            <path d="M0.355,0.531C0.209,0.412 0.115,0.315 0.064,0.194C-0.034,-0.05 -0.011,-0.338 0.074,-0.927C0.18,-0.821 0.285,-0.75 0.369,-0.677C0.455,-0.607 0.525,-0.541 0.589,-0.487C0.716,-0.381 0.794,-0.288 0.844,-0.178C0.946,0.045 0.928,0.316 1,0.927C0.711,0.769 0.499,0.654 0.355,0.531Z" style="fill:url(#_Linear34);fill-rule:nonzero;"/>
        </g>
        <g transform="matrix(6.59704,0,0,-6.59704,497.981,1045.42)">
            <path d="M0.022,0.093C-0.049,-0.193 0.056,-0.533 0.276,-1.16C0.378,-1.021 0.466,-0.901 0.543,-0.797C0.625,-0.698 0.696,-0.613 0.753,-0.534C0.866,-0.376 0.933,-0.251 0.971,-0.121C1.047,0.144 0.953,0.471 0.928,1.16C0.328,0.678 0.092,0.387 0.022,0.093Z" style="fill:url(#_Linear35);fill-rule:nonzero;"/>
        </g>
        <g transform="matrix(12.6309,0,0,-12.6309,514.828,1042.51)">
            <path d="M0.344,0.259C0.3,0.244 0.25,0.224 0.192,0.199C0.137,0.169 0.073,0.134 0,0.093C0.269,-0.094 0.374,-0.204 0.493,-0.236C0.608,-0.266 0.725,-0.209 1,-0.122C0.789,0.126 0.684,0.238 0.56,0.277C0.537,0.284 0.513,0.288 0.487,0.288C0.445,0.288 0.399,0.278 0.344,0.259Z" style="fill:url(#_Linear36);fill-rule:nonzero;"/>
        </g>
        <g transform="matrix(12.8237,0,0,-12.8237,507.236,1046.55)">
            <path d="M0.303,0.208C0.262,0.186 0.22,0.153 0.169,0.116C0.12,0.076 0.06,0.036 0,-0.024C0.29,-0.148 0.417,-0.245 0.531,-0.246C0.648,-0.257 0.75,-0.178 1,-0.042C0.761,0.152 0.632,0.258 0.51,0.266L0.495,0.266C0.438,0.266 0.378,0.247 0.303,0.208Z" style="fill:url(#_Linear37);fill-rule:nonzero;"/>
        </g>
        <g transform="matrix(12.5194,0,0,-12.5194,500.867,1052.25)">
            <path d="M0.453,0.27C0.388,0.264 0.329,0.23 0.258,0.164C0.222,0.132 0.182,0.093 0.139,0.044C0.099,-0.008 0.053,-0.069 0,-0.139C0.32,-0.197 0.454,-0.258 0.574,-0.241C0.691,-0.224 0.775,-0.125 1,0.059C0.743,0.205 0.605,0.272 0.485,0.272C0.475,0.272 0.464,0.271 0.453,0.27Z" style="fill:url(#_Linear38);fill-rule:nonzero;"/>
        </g>
        <g transform="matrix(6.95269,0,0,-6.95269,572.576,1054.76)">
            <path d="M0.02,0.198C0.036,0.052 0.049,-0.07 0.108,-0.167C0.161,-0.268 0.262,-0.342 0.39,-0.439C0.519,-0.535 0.697,-0.638 0.943,-0.781C0.984,-0.512 1.004,-0.291 0.999,-0.112C0.996,0.069 0.944,0.197 0.877,0.308C0.804,0.416 0.712,0.508 0.563,0.58C0.415,0.651 0.229,0.715 0,0.781C0.006,0.531 0.005,0.345 0.02,0.198Z" style="fill:url(#_Linear39);fill-rule:nonzero;"/>
        </g>
        <g transform="matrix(4.29564,0,0,-4.29564,496.056,1056.99)">
            <path d="M0.602,0.508C0.514,0.355 0.369,0.149 0.23,-0.123C0.157,-0.267 0.079,-0.429 0,-0.6L0.285,-0.744C0.36,-0.584 0.433,-0.435 0.501,-0.299C0.635,-0.038 0.775,0.161 0.86,0.309C0.949,0.454 1,0.537 1,0.537C0.916,0.606 0.832,0.675 0.747,0.744C0.747,0.744 0.694,0.658 0.602,0.508Z" style="fill:url(#_Linear40);fill-rule:nonzero;"/>
        </g>
        <g transform="matrix(1,0,0,1,415.036,1099.55)">
            <path d="M0,-10.931L6.152,-10.931L6.152,-8.767L2.356,-8.767L2.356,-6.56L6.152,-6.56L6.152,-4.429L2.356,-4.429L2.356,-2.164L6.152,-2.164L6.152,0L0,0L0,-10.931Z" style="fill:white;fill-rule:nonzero;"/>
        </g>
        <g transform="matrix(1,0,0,1,429.322,1098.56)">
            <path d="M0,-8.951L-1.465,-7.344C-2.237,-7.799 -2.792,-8.026 -3.13,-8.026C-3.391,-8.026 -3.616,-7.928 -3.805,-7.73C-3.994,-7.533 -4.088,-7.3 -4.088,-7.027C-4.088,-6.489 -3.6,-6.023 -2.623,-5.629C-1.907,-5.324 -1.365,-5.047 -0.999,-4.8C-0.633,-4.554 -0.326,-4.211 -0.079,-3.772C0.168,-3.334 0.291,-2.859 0.291,-2.348C0.291,-1.411 -0.087,-0.595 -0.845,0.099C-1.603,0.792 -2.498,1.14 -3.53,1.14C-4.662,1.14 -5.781,0.607 -6.885,-0.459L-5.336,-2.265C-4.643,-1.55 -3.994,-1.191 -3.389,-1.191C-3.105,-1.191 -2.833,-1.317 -2.573,-1.569C-2.312,-1.82 -2.181,-2.085 -2.181,-2.362C-2.181,-2.932 -2.784,-3.434 -3.988,-3.87C-4.676,-4.121 -5.165,-4.356 -5.453,-4.575C-5.742,-4.795 -5.984,-5.114 -6.182,-5.533C-6.378,-5.952 -6.477,-6.381 -6.477,-6.819C-6.477,-7.791 -6.161,-8.579 -5.528,-9.183C-4.896,-9.789 -4.068,-10.091 -3.047,-10.091C-1.837,-10.091 -0.822,-9.711 0,-8.951" style="fill:white;fill-rule:nonzero;"/>
        </g>
        <g transform="matrix(1,0,0,1,430.554,1099.55)">
            <path d="M0,-10.931L7.351,-10.931L7.351,-8.609L4.845,-8.609L4.845,0L2.489,0L2.489,-8.609L0,-8.609L0,-10.931Z" style="fill:white;fill-rule:nonzero;"/>
        </g>
        <g transform="matrix(1,0,0,1,441.792,1097.49)">
            <path d="M0,-6.802L0,-0.05L0.933,-0.05C1.898,-0.05 2.692,-0.314 3.313,-0.841C3.935,-1.368 4.246,-2.248 4.246,-3.48C4.246,-4.197 4.096,-4.829 3.796,-5.382C3.497,-5.934 3.063,-6.309 2.494,-6.506C1.925,-6.703 1.382,-6.802 0.866,-6.802L0,-6.802ZM-2.373,-8.866L1.357,-8.866C2.95,-8.866 4.232,-8.364 5.204,-7.36C6.175,-6.355 6.66,-5.031 6.66,-3.389C6.66,-1.74 6.16,-0.419 5.158,0.574C4.156,1.568 2.822,2.064 1.157,2.064L-2.373,2.064L-2.373,-8.866Z" style="fill:white;fill-rule:nonzero;"/>
        </g>
        <g transform="matrix(1,0,0,1,631.364,1090.67)">
            <path d="M0,6.902L3.03,6.902L3.03,8.883L-4.387,8.883L-0.766,4.28C-0.238,3.603 0.138,3.048 0.362,2.615C0.587,2.182 0.699,1.777 0.699,1.399C0.699,0.989 0.565,0.65 0.296,0.383C0.026,0.117 -0.311,-0.016 -0.716,-0.016C-1.182,-0.016 -1.521,0.152 -1.731,0.488C-1.942,0.824 -2.07,1.349 -2.114,2.065L-4.471,2.065C-4.476,0.778 -4.099,-0.218 -3.338,-0.923C-2.578,-1.628 -1.637,-1.981 -0.516,-1.981C0.527,-1.981 1.38,-1.676 2.04,-1.069C2.7,-0.461 3.03,0.317 3.03,1.266C3.03,2.193 2.645,3.219 1.873,4.346L1.241,5.27C0.991,5.642 0.675,6.067 0.292,6.545L0,6.902Z" style="fill:white;fill-rule:nonzero;"/>
        </g>
        <g transform="matrix(1,0,0,1,641.63,1094.15)">
            <path d="M0,0.15C0,-0.927 -0.173,-1.773 -0.517,-2.389C-0.86,-3.005 -1.324,-3.313 -1.907,-3.313C-2.518,-3.313 -2.997,-3.005 -3.347,-2.389C-3.696,-1.773 -3.872,-0.915 -3.872,0.183C-3.872,1.182 -3.694,1.981 -3.339,2.581C-2.983,3.18 -2.518,3.48 -1.94,3.48C-1.352,3.48 -0.882,3.18 -0.529,2.581C-0.177,1.981 0,1.171 0,0.15M-1.907,-5.37C-0.647,-5.37 0.357,-4.887 1.106,-3.921C1.856,-2.955 2.23,-1.664 2.23,-0.05C2.23,1.837 1.814,3.238 0.982,4.151C0.149,5.064 -0.813,5.52 -1.907,5.52C-3.155,5.52 -4.167,5.033 -4.941,4.059C-5.716,3.085 -6.103,1.804 -6.103,0.216C-6.103,-1.471 -5.724,-2.823 -4.967,-3.841C-4.209,-4.86 -3.211,-5.37 -1.974,-5.37L-1.907,-5.37Z" style="fill:white;fill-rule:nonzero;"/>
        </g>
        <g transform="matrix(1,0,0,1,650.679,1094.15)">
            <path d="M0,0.15C0,-0.927 -0.172,-1.773 -0.516,-2.389C-0.86,-3.005 -1.323,-3.313 -1.906,-3.313C-2.517,-3.313 -2.997,-3.005 -3.347,-2.389C-3.696,-1.773 -3.871,-0.915 -3.871,0.183C-3.871,1.182 -3.693,1.981 -3.338,2.581C-2.983,3.18 -2.517,3.48 -1.939,3.48C-1.352,3.48 -0.881,3.18 -0.528,2.581C-0.176,1.981 0,1.171 0,0.15M-1.906,-5.37C-0.646,-5.37 0.358,-4.887 1.107,-3.921C1.856,-2.955 2.231,-1.664 2.231,-0.05C2.231,1.837 1.815,3.238 0.982,4.151C0.15,5.064 -0.812,5.52 -1.906,5.52C-3.155,5.52 -4.167,5.033 -4.94,4.059C-5.715,3.085 -6.103,1.804 -6.103,0.216C-6.103,-1.471 -5.724,-2.823 -4.966,-3.841C-4.208,-4.86 -3.211,-5.37 -1.973,-5.37L-1.906,-5.37Z" style="fill:white;fill-rule:nonzero;"/>
        </g>
        <g transform="matrix(1,0,0,1,653.726,1099.88)">
            <path d="M0,-10.955L8.409,-10.955L1.639,0L-0.249,-1.189L4.572,-9.023L0,-9.023L0,-10.955Z" style="fill:white;fill-rule:nonzero;"/>
        </g>
    </g>
    <defs>
        <linearGradient id="_Linear1" x1="0" y1="0" x2="1" y2="0" gradientUnits="userSpaceOnUse" gradientTransform="matrix(1,0,0,1,0,0.0235575)"><stop offset="0" style="stop-color:rgb(172,123,43);stop-opacity:1"/><stop offset="1" style="stop-color:rgb(222,157,38);stop-opacity:1"/></linearGradient>
        <linearGradient id="_Linear2" x1="0" y1="0" x2="1" y2="0" gradientUnits="userSpaceOnUse" gradientTransform="matrix(0.233492,0.972359,-0.972359,0.233492,0.385625,-0.489188)"><stop offset="0" style="stop-color:rgb(172,123,43);stop-opacity:1"/><stop offset="1" style="stop-color:rgb(222,157,38);stop-opacity:1"/></linearGradient>
        <linearGradient id="_Linear3" x1="0" y1="0" x2="1" y2="0" gradientUnits="userSpaceOnUse" gradientTransform="matrix(1,0,0,1,0,0.00134616)"><stop offset="0" style="stop-color:rgb(172,123,43);stop-opacity:1"/><stop offset="1" style="stop-color:rgb(222,157,38);stop-opacity:1"/></linearGradient>
        <linearGradient id="_Linear4" x1="0" y1="0" x2="1" y2="0" gradientUnits="userSpaceOnUse" gradientTransform="matrix(1,0,0,1,0,0.00621295)"><stop offset="0" style="stop-color:rgb(172,123,43);stop-opacity:1"/><stop offset="1" style="stop-color:rgb(222,157,38);stop-opacity:1"/></linearGradient>
        <linearGradient id="_Linear5" x1="0" y1="0" x2="1" y2="0" gradientUnits="userSpaceOnUse" gradientTransform="matrix(1,0,0,1,0,0.00566183)"><stop offset="0" style="stop-color:rgb(172,123,43);stop-opacity:1"/><stop offset="1" style="stop-color:rgb(222,157,38);stop-opacity:1"/></linearGradient>
        <linearGradient id="_Linear6" x1="0" y1="0" x2="1" y2="0" gradientUnits="userSpaceOnUse" gradientTransform="matrix(1,0,0,1,0,0.000626672)"><stop offset="0" style="stop-color:rgb(172,123,43);stop-opacity:1"/><stop offset="1" style="stop-color:rgb(222,157,38);stop-opacity:1"/></linearGradient>
        <linearGradient id="_Linear7" x1="0" y1="0" x2="1" y2="0" gradientUnits="userSpaceOnUse" gradientTransform="matrix(1,0,0,1,0,-6.50064e-05)"><stop offset="0" style="stop-color:rgb(172,123,43);stop-opacity:1"/><stop offset="1" style="stop-color:rgb(222,157,38);stop-opacity:1"/></linearGradient>
        <linearGradient id="_Linear8" x1="0" y1="0" x2="1" y2="0" gradientUnits="userSpaceOnUse" gradientTransform="matrix(1,0,0,1,0,-8.90737e-06)"><stop offset="0" style="stop-color:rgb(172,123,43);stop-opacity:1"/><stop offset="1" style="stop-color:rgb(222,157,38);stop-opacity:1"/></linearGradient>
        <linearGradient id="_Linear9" x1="0" y1="0" x2="1" y2="0" gradientUnits="userSpaceOnUse" gradientTransform="matrix(1,0,0,1,0,-5.55043e-05)"><stop offset="0" style="stop-color:rgb(172,123,43);stop-opacity:1"/><stop offset="1" style="stop-color:rgb(222,157,38);stop-opacity:1"/></linearGradient>
        <linearGradient id="_Linear10" x1="0" y1="0" x2="1" y2="0" gradientUnits="userSpaceOnUse" gradientTransform="matrix(1,0,0,1,0,0.000122859)"><stop offset="0" style="stop-color:rgb(172,123,43);stop-opacity:1"/><stop offset="1" style="stop-color:rgb(222,157,38);stop-opacity:1"/></linearGradient>
        <linearGradient id="_Linear11" x1="0" y1="0" x2="1" y2="0" gradientUnits="userSpaceOnUse" gradientTransform="matrix(1,0,0,1,0,0.00273823)"><stop offset="0" style="stop-color:rgb(172,123,43);stop-opacity:1"/><stop offset="1" style="stop-color:rgb(222,157,38);stop-opacity:1"/></linearGradient>
        <linearGradient id="_Linear12" x1="0" y1="0" x2="1" y2="0" gradientUnits="userSpaceOnUse" gradientTransform="matrix(1,0,0,1,0,0.0378926)"><stop offset="0" style="stop-color:rgb(172,123,43);stop-opacity:1"/><stop offset="1" style="stop-color:rgb(222,157,38);stop-opacity:1"/></linearGradient>
        <linearGradient id="_Linear13" x1="0" y1="0" x2="1" y2="0" gradientUnits="userSpaceOnUse" gradientTransform="matrix(1,0,0,1,0,6.43588e-05)"><stop offset="0" style="stop-color:rgb(172,123,43);stop-opacity:1"/><stop offset="1" style="stop-color:rgb(222,157,38);stop-opacity:1"/></linearGradient>
        <linearGradient id="_Linear14" x1="0" y1="0" x2="1" y2="0" gradientUnits="userSpaceOnUse" gradientTransform="matrix(1,0,0,1,0,-0.000128351)"><stop offset="0" style="stop-color:rgb(172,123,43);stop-opacity:1"/><stop offset="1" style="stop-color:rgb(222,157,38);stop-opacity:1"/></linearGradient>
        <linearGradient id="_Linear15" x1="0" y1="0" x2="1" y2="0" gradientUnits="userSpaceOnUse" gradientTransform="matrix(1,0,0,1,0,7.94902e-05)"><stop offset="0" style="stop-color:rgb(172,123,43);stop-opacity:1"/><stop offset="1" style="stop-color:rgb(222,157,38);stop-opacity:1"/></linearGradient>
        <linearGradient id="_Linear16" x1="0" y1="0" x2="1" y2="0" gradientUnits="userSpaceOnUse" gradientTransform="matrix(1,0,0,1,0,0.00854587)"><stop offset="0" style="stop-color:rgb(172,123,43);stop-opacity:1"/><stop offset="1" style="stop-color:rgb(222,157,38);stop-opacity:1"/></linearGradient>
        <linearGradient id="_Linear17" x1="0" y1="0" x2="1" y2="0" gradientUnits="userSpaceOnUse" gradientTransform="matrix(1,0,0,1,0,0.0033216)"><stop offset="0" style="stop-color:rgb(172,123,43);stop-opacity:1"/><stop offset="1" style="stop-color:rgb(222,157,38);stop-opacity:1"/></linearGradient>
        <linearGradient id="_Linear18" x1="0" y1="0" x2="1" y2="0" gradientUnits="userSpaceOnUse" gradientTransform="matrix(1,0,0,1,0,0.0115123)"><stop offset="0" style="stop-color:rgb(172,123,43);stop-opacity:1"/><stop offset="1" style="stop-color:rgb(222,157,38);stop-opacity:1"/></linearGradient>
        <linearGradient id="_Linear19" x1="0" y1="0" x2="1" y2="0" gradientUnits="userSpaceOnUse" gradientTransform="matrix(1,0,0,1,0,8.04005e-05)"><stop offset="0" style="stop-color:rgb(172,123,43);stop-opacity:1"/><stop offset="1" style="stop-color:rgb(222,157,38);stop-opacity:1"/></linearGradient>
        <linearGradient id="_Linear20" x1="0" y1="0" x2="1" y2="0" gradientUnits="userSpaceOnUse" gradientTransform="matrix(1,0,0,1,0,2.50021e-05)"><stop offset="0" style="stop-color:rgb(172,123,43);stop-opacity:1"/><stop offset="1" style="stop-color:rgb(222,157,38);stop-opacity:1"/></linearGradient>
        <linearGradient id="_Linear21" x1="0" y1="0" x2="1" y2="0" gradientUnits="userSpaceOnUse" gradientTransform="matrix(1,0,0,1,0,0.0205436)"><stop offset="0" style="stop-color:rgb(172,123,43);stop-opacity:1"/><stop offset="1" style="stop-color:rgb(222,157,38);stop-opacity:1"/></linearGradient>
        <linearGradient id="_Linear22" x1="0" y1="0" x2="1" y2="0" gradientUnits="userSpaceOnUse" gradientTransform="matrix(0.233529,0.97235,-0.97235,0.233529,0.380703,-0.482963)"><stop offset="0" style="stop-color:rgb(172,123,43);stop-opacity:1"/><stop offset="1" style="stop-color:rgb(222,157,38);stop-opacity:1"/></linearGradient>
        <linearGradient id="_Linear23" x1="0" y1="0" x2="1" y2="0" gradientUnits="userSpaceOnUse" gradientTransform="matrix(1,0,0,1,0,0.00364)"><stop offset="0" style="stop-color:rgb(172,123,43);stop-opacity:1"/><stop offset="1" style="stop-color:rgb(222,157,38);stop-opacity:1"/></linearGradient>
        <linearGradient id="_Linear24" x1="0" y1="0" x2="1" y2="0" gradientUnits="userSpaceOnUse" gradientTransform="matrix(1,0,0,1,0,0.00306398)"><stop offset="0" style="stop-color:rgb(172,123,43);stop-opacity:1"/><stop offset="1" style="stop-color:rgb(222,157,38);stop-opacity:1"/></linearGradient>
        <linearGradient id="_Linear25" x1="0" y1="0" x2="1" y2="0" gradientUnits="userSpaceOnUse" gradientTransform="matrix(1,0,0,1,0,0.00256551)"><stop offset="0" style="stop-color:rgb(172,123,43);stop-opacity:1"/><stop offset="1" style="stop-color:rgb(222,157,38);stop-opacity:1"/></linearGradient>
        <linearGradient id="_Linear26" x1="0" y1="0" x2="1" y2="0" gradientUnits="userSpaceOnUse" gradientTransform="matrix(1,0,0,1,0,2.28615e-05)"><stop offset="0" style="stop-color:rgb(172,123,43);stop-opacity:1"/><stop offset="1" style="stop-color:rgb(222,157,38);stop-opacity:1"/></linearGradient>
        <linearGradient id="_Linear27" x1="0" y1="0" x2="1" y2="0" gradientUnits="userSpaceOnUse" gradientTransform="matrix(1,0,0,1,0,-1.71725e-05)"><stop offset="0" style="stop-color:rgb(172,123,43);stop-opacity:1"/><stop offset="1" style="stop-color:rgb(222,157,38);stop-opacity:1"/></linearGradient>
        <linearGradient id="_Linear28" x1="0" y1="0" x2="1" y2="0" gradientUnits="userSpaceOnUse" gradientTransform="matrix(1,0,0,1,0,3.65742e-05)"><stop offset="0" style="stop-color:rgb(172,123,43);stop-opacity:1"/><stop offset="1" style="stop-color:rgb(222,157,38);stop-opacity:1"/></linearGradient>
        <linearGradient id="_Linear29" x1="0" y1="0" x2="1" y2="0" gradientUnits="userSpaceOnUse" gradientTransform="matrix(1,0,0,1,0,-5.84485e-05)"><stop offset="0" style="stop-color:rgb(172,123,43);stop-opacity:1"/><stop offset="1" style="stop-color:rgb(222,157,38);stop-opacity:1"/></linearGradient>
        <linearGradient id="_Linear30" x1="0" y1="0" x2="1" y2="0" gradientUnits="userSpaceOnUse" gradientTransform="matrix(1,0,0,1,0,0.000102794)"><stop offset="0" style="stop-color:rgb(172,123,43);stop-opacity:1"/><stop offset="1" style="stop-color:rgb(222,157,38);stop-opacity:1"/></linearGradient>
        <linearGradient id="_Linear31" x1="0" y1="0" x2="1" y2="0" gradientUnits="userSpaceOnUse" gradientTransform="matrix(1,0,0,1,0,2.23946e-05)"><stop offset="0" style="stop-color:rgb(172,123,43);stop-opacity:1"/><stop offset="1" style="stop-color:rgb(222,157,38);stop-opacity:1"/></linearGradient>
        <linearGradient id="_Linear32" x1="0" y1="0" x2="1" y2="0" gradientUnits="userSpaceOnUse" gradientTransform="matrix(1,0,0,1,0,0.000490613)"><stop offset="0" style="stop-color:rgb(172,123,43);stop-opacity:1"/><stop offset="1" style="stop-color:rgb(222,157,38);stop-opacity:1"/></linearGradient>
        <linearGradient id="_Linear33" x1="0" y1="0" x2="1" y2="0" gradientUnits="userSpaceOnUse" gradientTransform="matrix(1,0,0,1,0,-5.3035e-05)"><stop offset="0" style="stop-color:rgb(172,123,43);stop-opacity:1"/><stop offset="1" style="stop-color:rgb(222,157,38);stop-opacity:1"/></linearGradient>
        <linearGradient id="_Linear34" x1="0" y1="0" x2="1" y2="0" gradientUnits="userSpaceOnUse" gradientTransform="matrix(1,0,0,1,0,4.0068e-07)"><stop offset="0" style="stop-color:rgb(172,123,43);stop-opacity:1"/><stop offset="1" style="stop-color:rgb(222,157,38);stop-opacity:1"/></linearGradient>
        <linearGradient id="_Linear35" x1="0" y1="0" x2="1" y2="0" gradientUnits="userSpaceOnUse" gradientTransform="matrix(1,0,0,1,0,-7.31237e-05)"><stop offset="0" style="stop-color:rgb(172,123,43);stop-opacity:1"/><stop offset="1" style="stop-color:rgb(222,157,38);stop-opacity:1"/></linearGradient>
        <linearGradient id="_Linear36" x1="0" y1="0" x2="1" y2="0" gradientUnits="userSpaceOnUse" gradientTransform="matrix(1,0,0,1,0,0.0219382)"><stop offset="0" style="stop-color:rgb(172,123,43);stop-opacity:1"/><stop offset="1" style="stop-color:rgb(222,157,38);stop-opacity:1"/></linearGradient>
        <linearGradient id="_Linear37" x1="0" y1="0" x2="1" y2="0" gradientUnits="userSpaceOnUse" gradientTransform="matrix(1,0,0,1,0,0.00963122)"><stop offset="0" style="stop-color:rgb(172,123,43);stop-opacity:1"/><stop offset="1" style="stop-color:rgb(222,157,38);stop-opacity:1"/></linearGradient>
        <linearGradient id="_Linear38" x1="0" y1="0" x2="1" y2="0" gradientUnits="userSpaceOnUse" gradientTransform="matrix(1,0,0,1,0,0.0139715)"><stop offset="0" style="stop-color:rgb(172,123,43);stop-opacity:1"/><stop offset="1" style="stop-color:rgb(222,157,38);stop-opacity:1"/></linearGradient>
        <linearGradient id="_Linear39" x1="0" y1="0" x2="1" y2="0" gradientUnits="userSpaceOnUse" gradientTransform="matrix(1,0,0,1,0,-6.55861e-05)"><stop offset="0" style="stop-color:rgb(172,123,43);stop-opacity:1"/><stop offset="1" style="stop-color:rgb(222,157,38);stop-opacity:1"/></linearGradient>
        <linearGradient id="_Linear40" x1="0" y1="0" x2="1" y2="0" gradientUnits="userSpaceOnUse" gradientTransform="matrix(1,0,0,1,0,-0.000233819)"><stop offset="0" style="stop-color:rgb(172,123,43);stop-opacity:1"/><stop offset="1" style="stop-color:rgb(222,157,38);stop-opacity:1"/></linearGradient>
    </defs>
</svg>
