<?xml version="1.0" encoding="UTF-8" standalone="no"?>
<!DOCTYPE svg PUBLIC "-//W3C//DTD SVG 1.1//EN" "http://www.w3.org/Graphics/SVG/1.1/DTD/svg11.dtd">
<svg width="100%" height="100%" viewBox="0 0 48 48" version="1.1" xmlns="http://www.w3.org/2000/svg" xmlns:xlink="http://www.w3.org/1999/xlink" xml:space="preserve" xmlns:serif="http://www.serif.com/" style="fill-rule:evenodd;clip-rule:evenodd;stroke-linejoin:round;stroke-miterlimit:2;">
    <g>
        <path d="M39,7L36,4L33,7L30,4L27,7L24,4L21,7L18,4L15,7L12,4L12,32L6,32L6,38C6,41.32 8.68,44 12,44L36,44C39.32,44 42,41.32 42,38L42,4L39,7ZM30,40L12,40C10.9,40 10,39.1 10,38L10,36L30,36L30,40ZM38,38C38,39.1 37.1,40 36,40C34.9,40 34,39.1 34,38L34,32L16,32L16,10L38,10L38,38Z" style="fill:rgb(128,203,196);fill-rule:nonzero;"/>
        <rect x="18" y="14" width="12" height="4" style="fill:rgb(128,203,196);"/>
        <rect x="32" y="14" width="4" height="4" style="fill:rgb(128,203,196);"/>
        <rect x="18" y="20" width="12" height="4" style="fill:rgb(128,203,196);"/>
        <rect x="32" y="20" width="4" height="4" style="fill:rgb(128,203,196);"/>
    </g>
</svg>
